<svg width="40" height="41" viewBox="0 0 40 41" fill="none" xmlns="http://www.w3.org/2000/svg">
<path opacity="0.4" d="M20 36.8253C29.2048 36.8253 36.6667 29.3634 36.6667 20.1586C36.6667 10.9539 29.2048 3.49194 20 3.49194C10.7953 3.49194 3.33334 10.9539 3.33334 20.1586C3.33334 29.3634 10.7953 36.8253 20 36.8253Z" fill="url(#paint0_radial_38_164)"/>
<path d="M27.9333 20.0421C27.2333 19.9254 26.6167 20.4254 26.5167 21.1088C26.3167 22.5588 25.6666 23.8588 24.6666 24.8588C22.3666 27.1588 18.8 27.3921 16.2167 25.6088H17.4667C18.15 25.6088 18.7167 25.0421 18.7167 24.3588C18.7167 23.6755 18.15 23.1088 17.4667 23.1088H13.0167C12.3333 23.1088 11.7667 23.6755 11.7667 24.3588V28.8088C11.7667 29.4921 12.3333 30.0588 13.0167 30.0588C13.7 30.0588 14.2667 29.4921 14.2667 28.8088V27.2421C15.9333 28.5921 17.95 29.3087 19.9833 29.3087C22.3167 29.3087 24.65 28.4255 26.4333 26.6421C27.8166 25.2588 28.7 23.4754 28.9834 21.4754C29.1 20.7587 28.6167 20.1254 27.9333 20.0421Z" fill="url(#paint1_radial_38_164)"/>
<path d="M12.2333 20.2921C12.85 20.2921 13.3833 19.842 13.4666 19.2254C13.6666 17.7754 14.3166 16.4754 15.3166 15.4754C17.6166 13.1754 21.1833 12.942 23.7667 14.7254H22.5167C21.8333 14.7254 21.2667 15.292 21.2667 15.9754C21.2667 16.6587 21.8333 17.2254 22.5167 17.2254H26.9666C27.65 17.2254 28.2166 16.6587 28.2166 15.9754V11.5254C28.2166 10.8421 27.65 10.2754 26.9666 10.2754C26.2833 10.2754 25.7166 10.8421 25.7166 11.5254V13.0921C22.1333 10.1921 16.8833 10.3754 13.5667 13.692C12.1833 15.0754 11.3 16.8587 11.0166 18.8587C10.9166 19.542 11.4 20.1754 12.0833 20.2754C12.1166 20.2921 12.1833 20.2921 12.2333 20.2921Z" fill="url(#paint2_radial_38_164)"/>
<defs>
<radialGradient id="paint0_radial_38_164" cx="0" cy="0" r="1" gradientUnits="userSpaceOnUse" gradientTransform="translate(20 3.49194) rotate(90) scale(33.3333)">
<stop offset="0.144704" stop-color="#D4FF9D"/>
<stop offset="0.500728" stop-color="#89FF12"/>
<stop offset="1" stop-color="#75EB00"/>
</radialGradient>
<radialGradient id="paint1_radial_38_164" cx="0" cy="0" r="1" gradientUnits="userSpaceOnUse" gradientTransform="translate(20.3837 20.0251) rotate(90) scale(10.0336 17.2341)">
<stop offset="0.144704" stop-color="#D4FF9D"/>
<stop offset="0.500728" stop-color="#89FF12"/>
<stop offset="1" stop-color="#75EB00"/>
</radialGradient>
<radialGradient id="paint2_radial_38_164" cx="0" cy="0" r="1" gradientUnits="userSpaceOnUse" gradientTransform="translate(19.6101 10.2754) rotate(90) scale(10.0167 17.2131)">
<stop offset="0.144704" stop-color="#D4FF9D"/>
<stop offset="0.500728" stop-color="#89FF12"/>
<stop offset="1" stop-color="#75EB00"/>
</radialGradient>
</defs>
</svg>
