<svg width="28" height="29" viewBox="0 0 28 29" fill="none" xmlns="http://www.w3.org/2000/svg">
<path d="M22.5516 7.07132L15.2366 3.12799C14.4666 2.70799 13.5333 2.70799 12.7633 3.12799L5.44829 7.07132C4.91163 7.36299 4.58496 7.92299 4.58496 8.56466C4.58496 9.19465 4.91163 9.76632 5.44829 10.058L12.7633 14.0013C13.1483 14.2113 13.58 14.3163 14 14.3163C14.42 14.3163 14.8516 14.2113 15.2366 14.0013L22.5516 10.058C23.0883 9.76632 23.415 9.20632 23.415 8.56466C23.415 7.92299 23.0883 7.36299 22.5516 7.07132Z" fill="url(#paint0_radial_805_667)"/>
<path opacity="0.4" d="M11.5616 15.3663L4.74825 11.9597C4.22325 11.703 3.61659 11.7263 3.12659 12.0297C2.62492 12.3447 2.33325 12.8697 2.33325 13.453V19.8813C2.33325 20.9897 2.95159 21.993 3.94325 22.4947L10.7449 25.9013C10.9783 26.018 11.2349 26.0763 11.4916 26.0763C11.7949 26.0763 12.0983 25.9947 12.3666 25.8313C12.8683 25.528 13.1599 24.9913 13.1599 24.408V17.9797C13.1716 16.8597 12.5533 15.8563 11.5616 15.3663Z" fill="url(#paint1_radial_805_667)"/>
<path opacity="0.4" d="M24.8734 12.0295C24.3718 11.7262 23.7651 11.6912 23.2518 11.9595L16.4501 15.3662C15.4584 15.8678 14.8401 16.8595 14.8401 17.9795V24.4078C14.8401 24.9912 15.1318 25.5278 15.6334 25.8312C15.9018 25.9945 16.2051 26.0762 16.5084 26.0762C16.7651 26.0762 17.0218 26.0178 17.2551 25.9012L24.0568 22.4945C25.0484 21.9928 25.6668 21.0012 25.6668 19.8812V13.4528C25.6668 12.8695 25.3751 12.3445 24.8734 12.0295Z" fill="url(#paint2_radial_805_667)"/>
<defs>
<radialGradient id="paint0_radial_805_667" cx="0" cy="0" r="1" gradientUnits="userSpaceOnUse" gradientTransform="translate(14 2.81299) rotate(90) scale(11.5033 18.83)">
<stop offset="0.144704" stop-color="#FF9DEF"/>
<stop offset="0.500728" stop-color="#FF12E7"/>
<stop offset="1" stop-color="#EB00B7"/>
</radialGradient>
<radialGradient id="paint1_radial_805_667" cx="0" cy="0" r="1" gradientUnits="userSpaceOnUse" gradientTransform="translate(7.74667 11.7832) rotate(90) scale(14.2931 10.8268)">
<stop offset="0.144704" stop-color="#FF9DEF"/>
<stop offset="0.500728" stop-color="#FF12E7"/>
<stop offset="1" stop-color="#EB00B7"/>
</radialGradient>
<radialGradient id="paint2_radial_805_667" cx="0" cy="0" r="1" gradientUnits="userSpaceOnUse" gradientTransform="translate(20.2534 11.7783) rotate(90) scale(14.2978 10.8267)">
<stop offset="0.144704" stop-color="#FF9DEF"/>
<stop offset="0.500728" stop-color="#FF12E7"/>
<stop offset="1" stop-color="#EB00B7"/>
</radialGradient>
</defs>
</svg>
