<svg width="40" height="41" viewBox="0 0 40 41" fill="none" xmlns="http://www.w3.org/2000/svg">
<path d="M22.1666 13.6754L24.3666 18.0754C24.6666 18.6754 25.4666 19.2754 26.1333 19.3754L30.1167 20.0421C32.6667 20.4754 33.2666 22.3088 31.4333 24.1421L28.3333 27.2421C27.8167 27.7588 27.5166 28.7754 27.6833 29.5088L28.5667 33.3588C29.2667 36.3921 27.65 37.5754 24.9667 35.9921L21.2333 33.7754C20.55 33.3754 19.45 33.3754 18.7667 33.7754L15.0333 35.9921C12.35 37.5754 10.7333 36.3921 11.4333 33.3588L12.3167 29.5088C12.4833 28.7921 12.1833 27.7754 11.6667 27.2421L8.56668 24.1421C6.73334 22.3088 7.33331 20.4588 9.88331 20.0421L13.8667 19.3754C14.5333 19.2588 15.3333 18.6754 15.6333 18.0754L17.8333 13.6754C19.0167 11.2921 20.9833 11.2921 22.1666 13.6754Z" fill="url(#paint0_radial_38_174)"/>
<path opacity="0.4" d="M10 16.4086C9.31667 16.4086 8.75 15.8419 8.75 15.1586V3.49194C8.75 2.80861 9.31667 2.24194 10 2.24194C10.6833 2.24194 11.25 2.80861 11.25 3.49194V15.1586C11.25 15.8419 10.6833 16.4086 10 16.4086Z" fill="url(#paint1_radial_38_174)"/>
<path opacity="0.4" d="M30 16.4086C29.3167 16.4086 28.75 15.8419 28.75 15.1586V3.49194C28.75 2.80861 29.3167 2.24194 30 2.24194C30.6833 2.24194 31.25 2.80861 31.25 3.49194V15.1586C31.25 15.8419 30.6833 16.4086 30 16.4086Z" fill="url(#paint2_radial_38_174)"/>
<path opacity="0.4" d="M20 8.07528C19.3167 8.07528 18.75 7.50861 18.75 6.82528V3.49194C18.75 2.80861 19.3167 2.24194 20 2.24194C20.6833 2.24194 21.25 2.80861 21.25 3.49194V6.82528C21.25 7.50861 20.6833 8.07528 20 8.07528Z" fill="url(#paint3_radial_38_174)"/>
<defs>
<radialGradient id="paint0_radial_38_174" cx="0" cy="0" r="1" gradientUnits="userSpaceOnUse" gradientTransform="translate(20 11.8879) rotate(90) scale(24.8069 24.9934)">
<stop offset="0.144704" stop-color="#9DEDFF"/>
<stop offset="0.500728" stop-color="#12E3FF"/>
<stop offset="1" stop-color="#00A4EB"/>
</radialGradient>
<radialGradient id="paint1_radial_38_174" cx="0" cy="0" r="1" gradientUnits="userSpaceOnUse" gradientTransform="translate(10 2.24194) rotate(90) scale(14.1667 2.5)">
<stop offset="0.144704" stop-color="#9DEDFF"/>
<stop offset="0.500728" stop-color="#12E3FF"/>
<stop offset="1" stop-color="#00A4EB"/>
</radialGradient>
<radialGradient id="paint2_radial_38_174" cx="0" cy="0" r="1" gradientUnits="userSpaceOnUse" gradientTransform="translate(30 2.24194) rotate(90) scale(14.1667 2.5)">
<stop offset="0.144704" stop-color="#9DEDFF"/>
<stop offset="0.500728" stop-color="#12E3FF"/>
<stop offset="1" stop-color="#00A4EB"/>
</radialGradient>
<radialGradient id="paint3_radial_38_174" cx="0" cy="0" r="1" gradientUnits="userSpaceOnUse" gradientTransform="translate(20 2.24194) rotate(90) scale(5.83333 2.5)">
<stop offset="0.144704" stop-color="#9DEDFF"/>
<stop offset="0.500728" stop-color="#12E3FF"/>
<stop offset="1" stop-color="#00A4EB"/>
</radialGradient>
</defs>
</svg>
