<svg width="32" height="33" viewBox="0 0 32 33" fill="none" xmlns="http://www.w3.org/2000/svg">
<circle cx="16" cy="16.1587" r="16" fill="#0A0A0C"/>
<path d="M13.4856 16.2601C13.0091 15.9247 12.3687 15.719 11.6638 15.719C10.1927 15.719 9 16.6134 9 17.7167C9 18.3953 9.45131 18.9943 10.1409 19.3555C10.2345 19.4214 18.409 24.3961 18.5144 24.4514C18.991 24.7867 19.6315 24.9924 20.3364 24.9924C21.8075 24.9924 23 24.098 23 22.9946C23 22.3161 22.5486 21.7171 21.8591 21.356C21.7657 21.29 13.591 16.3154 13.4856 16.2601Z" fill="url(#paint0_radial_38_118)"/>
<path d="M13.4856 7.69956C13.0091 7.36419 12.3687 7.15852 11.6638 7.15852C10.1927 7.15852 9 8.05292 9 9.15622C9 9.8348 9.45131 10.4338 10.1409 10.795C10.2345 10.8609 18.409 15.8355 18.5144 15.8908C18.991 16.2262 19.6315 16.4319 20.3364 16.4319C21.8075 16.4319 23 15.5375 23 14.4342C23 13.7556 22.5486 13.1566 21.8591 12.7955C21.7657 12.7295 13.591 7.7549 13.4856 7.69956Z" fill="url(#paint1_radial_38_118)"/>
<defs>
<radialGradient id="paint0_radial_38_118" cx="0" cy="0" r="1" gradientUnits="userSpaceOnUse" gradientTransform="translate(23 20.3557) rotate(180) scale(14 9.27341)">
<stop offset="0.144704" stop-color="#FFFB9D"/>
<stop offset="0.500728" stop-color="#FFD912"/>
<stop offset="1" stop-color="#EBA900"/>
</radialGradient>
<radialGradient id="paint1_radial_38_118" cx="0" cy="0" r="1" gradientUnits="userSpaceOnUse" gradientTransform="translate(23 11.7952) rotate(180) scale(14 9.27337)">
<stop offset="0.144704" stop-color="#FFFB9D"/>
<stop offset="0.500728" stop-color="#FFD912"/>
<stop offset="1" stop-color="#EBA900"/>
</radialGradient>
</defs>
</svg>
