<svg width="108" height="117" viewBox="0 0 108 117" fill="none" xmlns="http://www.w3.org/2000/svg">
<path fill-rule="evenodd" clip-rule="evenodd" d="M107.981 105.658C107.981 104.377 107.472 103.149 106.566 102.243C105.661 101.338 104.433 100.828 103.152 100.827H4.82921C3.54841 100.828 2.32033 101.338 1.41481 102.243C0.509296 103.149 0.000420748 104.377 2.61131e-07 105.658V111.804C-0.000208336 112.438 0.124559 113.066 0.367176 113.652C0.609792 114.238 0.965501 114.77 1.41398 115.219C1.86245 115.667 2.3949 116.023 2.9809 116.266C3.56691 116.508 4.19497 116.633 4.82921 116.633H103.152C103.786 116.633 104.414 116.509 105 116.266C105.586 116.023 106.119 115.668 106.567 115.219C107.016 114.771 107.372 114.238 107.614 113.652C107.857 113.066 107.981 112.438 107.981 111.804V105.658ZM13.6971 39.6733L13.6701 39.6464L13.6669 39.6495C12.7348 38.8368 11.5412 38.387 10.3045 38.3827C8.95069 38.384 7.65113 38.9152 6.68393 39.8625C5.71672 40.8098 5.1587 42.0981 5.12925 43.4516H5.00225V89.8673H5.16577C5.41183 92.501 7.60418 94.5743 10.3045 94.5743C10.3236 94.5743 10.3426 94.5695 10.3617 94.5679V94.5743H97.6161V94.4536C97.6367 94.4536 97.6542 94.46 97.6748 94.46C100.334 94.46 102.502 92.447 102.801 89.8673H102.86V44.4152C103.02 43.6599 103.009 42.8782 102.829 42.1274C102.649 41.3766 102.303 40.6755 101.817 40.0754C101.331 39.4752 100.717 38.9911 100.021 38.6585C99.3237 38.3258 98.5613 38.1529 97.7891 38.1525C96.5572 38.1525 95.4412 38.6002 94.5506 39.3162L94.5363 39.3019L94.3919 39.4463C94.2155 39.5997 94.05 39.7652 93.8966 39.9416L82.9729 50.8653L57.8077 25.7001L57.7584 25.7493C57.2764 25.2323 56.6933 24.82 56.0453 24.5379C55.3972 24.2558 54.6981 24.1099 53.9913 24.1094C53.283 24.1101 52.5824 24.2566 51.9332 24.5398C51.284 24.823 50.7001 25.2369 50.2178 25.7556L50.1622 25.7001L24.9414 50.9177L14.2003 40.175C14.0434 39.9972 13.8753 39.8297 13.6971 39.6733ZM90.4596 52.9989V53.1497H90.3088L90.4596 52.9989Z" fill="url(#paint0_radial_231_1578)"/>
<path opacity="0.4" d="M10.0917 32.0468C15.3891 32.0468 19.6835 27.7524 19.6835 22.455C19.6835 17.1577 15.3891 12.8633 10.0917 12.8633C4.79437 12.8633 0.5 17.1577 0.5 22.455C0.5 27.7524 4.79437 32.0468 10.0917 32.0468Z" fill="url(#paint1_radial_231_1578)"/>
<path opacity="0.4" d="M96.0842 32.0468C101.382 32.0468 105.676 27.7524 105.676 22.455C105.676 17.1577 101.382 12.8633 96.0842 12.8633C90.7868 12.8633 86.4924 17.1577 86.4924 22.455C86.4924 27.7524 90.7868 32.0468 96.0842 32.0468Z" fill="url(#paint2_radial_231_1578)"/>
<path opacity="0.4" d="M53.0878 19.3466C58.3852 19.3466 62.6796 15.0522 62.6796 9.75483C62.6796 4.45746 58.3852 0.163086 53.0878 0.163086C47.7905 0.163086 43.4961 4.45746 43.4961 9.75483C43.4961 15.0522 47.7905 19.3466 53.0878 19.3466Z" fill="url(#paint3_radial_231_1578)"/>
<defs>
<radialGradient id="paint0_radial_231_1578" cx="0" cy="0" r="1" gradientUnits="userSpaceOnUse" gradientTransform="translate(53.9905 24.1094) rotate(90) scale(92.5234 107.981)">
<stop offset="0.144704" stop-color="#FF9DEF"/>
<stop offset="0.500728" stop-color="#FF12E7"/>
<stop offset="1" stop-color="#EB00B7"/>
</radialGradient>
<radialGradient id="paint1_radial_231_1578" cx="0" cy="0" r="1" gradientUnits="userSpaceOnUse" gradientTransform="translate(10.0917 12.8633) rotate(90) scale(19.1835 19.1835)">
<stop offset="0.144704" stop-color="#FF9DEF"/>
<stop offset="0.500728" stop-color="#FF12E7"/>
<stop offset="1" stop-color="#EB00B7"/>
</radialGradient>
<radialGradient id="paint2_radial_231_1578" cx="0" cy="0" r="1" gradientUnits="userSpaceOnUse" gradientTransform="translate(96.0842 12.8633) rotate(90) scale(19.1835 19.1835)">
<stop offset="0.144704" stop-color="#FF9DEF"/>
<stop offset="0.500728" stop-color="#FF12E7"/>
<stop offset="1" stop-color="#EB00B7"/>
</radialGradient>
<radialGradient id="paint3_radial_231_1578" cx="0" cy="0" r="1" gradientUnits="userSpaceOnUse" gradientTransform="translate(53.0878 0.163086) rotate(90) scale(19.1835 19.1835)">
<stop offset="0.144704" stop-color="#FF9DEF"/>
<stop offset="0.500728" stop-color="#FF12E7"/>
<stop offset="1" stop-color="#EB00B7"/>
</radialGradient>
</defs>
</svg>
