<svg width="23" height="24" viewBox="0 0 23 24" fill="none" xmlns="http://www.w3.org/2000/svg">
<path opacity="0.97" d="M15.5154 2.07544H7.48457C3.99624 2.07544 1.91666 4.15502 1.91666 7.64336V15.6646C1.91666 19.1625 3.99624 21.2421 7.48457 21.2421H15.5058C18.9942 21.2421 21.0737 19.1625 21.0737 15.6742V7.64336C21.0833 4.15502 19.0037 2.07544 15.5154 2.07544ZM7.96374 15.7892C7.27374 15.7892 6.70832 15.2238 6.70832 14.5338C6.70832 13.8438 7.27374 13.2784 7.96374 13.2784C8.65374 13.2784 9.21916 13.8438 9.21916 14.5338C9.21916 15.2238 8.65374 15.7892 7.96374 15.7892ZM11.5 10.0392C10.81 10.0392 10.2446 9.47377 10.2446 8.78377C10.2446 8.09377 10.81 7.52836 11.5 7.52836C12.19 7.52836 12.7554 8.09377 12.7554 8.78377C12.7554 9.47377 12.19 10.0392 11.5 10.0392ZM15.0362 15.7892C14.3462 15.7892 13.7808 15.2238 13.7808 14.5338C13.7808 13.8438 14.3462 13.2784 15.0362 13.2784C15.7262 13.2784 16.2917 13.8438 16.2917 14.5338C16.2917 15.2238 15.7262 15.7892 15.0362 15.7892Z" fill="#0A0A0C"/>
</svg>
