<svg width="648" height="534" viewBox="0 0 648 534" fill="none" xmlns="http://www.w3.org/2000/svg">
<path d="M271.38 96.8113C265.743 87.6896 262.924 83.1291 262.737 78.9481C262.572 75.2706 263.791 71.8009 266.22 69.0365C268.981 65.8938 274.032 64.1036 284.134 60.5233L424.07 10.9249C434.171 7.34457 439.222 5.55439 444.178 5.96208C448.536 6.3207 452.836 7.83434 456.459 10.2861C460.578 13.0733 463.397 17.6342 469.034 26.7559L588.651 220.303C594.289 229.425 597.108 233.986 597.295 238.167C597.459 241.844 596.24 245.314 593.811 248.078C591.05 251.221 586 253.011 575.898 256.592L435.962 306.19C425.86 309.771 420.809 311.56 415.854 311.153C411.495 310.794 407.196 309.281 403.572 306.828C399.454 304.042 396.634 299.481 390.997 290.359L271.38 96.8113Z" fill="url(#paint0_radial_412_158)"/>
<path d="M400.014 49.2339L339.139 70.81C336.441 71.7662 335.475 74.5163 336.98 76.9525C338.486 79.3887 341.894 80.5885 344.592 79.6323L405.466 58.0562C408.164 57.0999 409.131 54.3498 407.625 51.9136C406.119 49.4774 402.712 48.2777 400.014 49.2339Z" fill="#0A0A0B"/>
<path d="M373.771 66.8083C377.922 65.3372 379.408 61.1062 377.092 57.3582C374.776 53.6102 369.533 51.7645 365.383 53.2356C361.232 54.7067 359.745 58.9377 362.061 62.6857C364.378 66.4337 369.62 68.2794 373.771 66.8083Z" fill="#0A0A0B"/>
<path d="M342.557 139.439C345.556 138.376 347.158 136.343 347.331 134.446L344.841 130.414L341.639 131.549L343.536 134.575C343.24 135.473 342.372 136.204 340.884 136.731C338.223 137.673 335.277 136.509 333.692 133.944C332.157 131.46 332.803 128.948 335.35 128.045C337.154 127.405 338.779 127.723 340.301 128.673L342.141 126.357C339.655 124.559 336.355 124.289 333.762 125.207C329.275 126.798 327.844 131.152 330.285 135.102C332.726 139.052 338.116 141.013 342.557 139.439ZM362.736 131.939L361.087 129.272L353.309 132.029L351.547 129.179L358.717 126.637L357.069 123.971L349.899 126.511L348.138 123.661L355.781 120.953L354.133 118.285L346.106 121.13C344.009 121.873 343.815 123.158 344.783 124.726L350.093 133.318C351.062 134.885 352.478 135.575 354.575 134.832L362.736 131.939ZM367.999 113.37L355.779 117.702L357.477 120.45L361.942 118.868L368.711 129.821L372.003 128.655L365.233 117.702L369.698 116.119L367.999 113.37ZM381.74 105.696L378.606 106.807L379.965 109.005C377.864 110.32 377.19 112.52 378.436 114.536C380.348 117.631 383.89 117.268 386.381 116.808C388.11 116.493 389.418 116.252 390.123 117.392C390.727 118.37 389.972 119.282 388.552 119.786C386.973 120.345 385.599 120.212 384.486 119.39L382.504 121.607C384.166 122.829 386.201 123.275 388.276 122.986L389.66 125.226L392.771 124.123L391.437 121.964C393.814 120.651 394.723 118.343 393.402 116.205C391.477 113.09 388.048 113.412 385.58 113.865C383.771 114.184 382.331 114.346 381.652 113.247C381.136 112.413 381.666 111.58 382.905 111.14C384.439 110.596 385.808 110.856 386.846 111.556L388.828 109.339C387.153 108.096 385.096 107.658 383.111 107.915L381.74 105.696ZM408.537 107.366C405.982 103.233 401.027 101.664 396.112 103.407L390.453 105.412L398.921 119.114L404.512 117.132C409.293 115.438 411.141 111.581 408.537 107.366ZM405.155 108.566C406.741 111.13 405.705 113.458 402.864 114.465L400.564 115.28L395.443 106.994L397.811 106.155C400.674 105.14 403.632 106.101 405.155 108.566ZM422.17 111.146C426.679 109.549 427.316 106.444 424.875 102.494L420.17 94.8794L416.878 96.046L421.546 103.6C423.018 105.982 422.653 107.526 420.421 108.317C418.189 109.108 416.389 108.331 414.917 105.949L410.249 98.3953L406.957 99.5627L411.663 107.176C414.104 111.126 417.638 112.753 422.17 111.146ZM439.126 105.211C441.764 104.276 443.51 102.119 443.316 99.5811L439.79 99.1685C439.821 100.597 439.069 101.782 437.242 102.429C434.694 103.332 431.771 102.159 430.236 99.6752C428.701 97.1919 429.408 94.7326 431.933 93.8372C433.759 93.1901 435.397 93.5276 436.871 94.4453L438.71 92.1303C436.262 90.3915 432.957 90.0245 430.319 90.9597C425.9 92.5261 424.401 96.9039 426.854 100.874C429.308 104.845 434.708 106.777 439.126 105.211ZM450.872 100.701L447.5 95.2441L449.461 94.549C449.906 94.9129 450.44 95.2441 451.065 95.5441L457.162 98.4711L461.198 97.0403L453.525 93.4311C452.464 92.914 451.846 92.5373 451.532 92.0282C451.217 91.5191 451.218 90.8983 451.374 89.9495L452.595 83.3869L448.852 84.7131L447.781 90.2304C447.698 90.8057 447.669 91.3372 447.753 91.8287L445.814 92.5158L442.404 86.9985L439.112 88.1652L447.581 101.867L450.872 100.701ZM461.679 89.5481C462.614 90.2599 463.587 90.6341 464.491 90.761L467.082 94.9552L470.374 93.7885L467.77 89.5736C468.219 88.9679 468.44 88.17 468.308 87.1988L467.249 78.1927L463.687 79.4553L464.851 87.4318C464.867 87.7239 464.9 87.9106 464.765 87.9585C464.629 88.0064 464.474 87.8883 464.175 87.6712L456.811 81.8923L453.271 83.1475L461.679 89.5481Z" fill="black"/>
<path opacity="0.6" d="M356.879 158.125C359.141 157.324 359.434 155.711 358.185 153.691L355.642 149.576L354.416 150.011L356.938 154.094C357.831 155.538 357.654 156.58 356.235 157.083C354.817 157.586 353.647 157.021 352.754 155.577L350.231 151.494L349.004 151.929L351.548 156.044C352.796 158.063 354.607 158.931 356.879 158.125ZM364.178 155.565C365.428 155.122 366.114 154.098 365.49 153.088C364.249 151.079 361.359 153.07 360.689 151.984C360.427 151.56 360.747 151.129 361.3 150.933C361.841 150.741 362.423 150.733 362.963 151.111L363.589 150.32C362.833 149.833 361.807 149.642 360.712 150.029C359.425 150.485 358.935 151.494 359.511 152.427C360.766 154.457 363.622 152.413 364.313 153.532C364.602 153.999 364.239 154.431 363.565 154.67C362.916 154.9 362.314 154.876 361.685 154.449L361.053 155.23C362 155.86 363.083 155.953 364.178 155.565ZM364.761 147.443C365.194 147.289 365.336 146.855 365.095 146.464C364.853 146.073 364.315 145.867 363.882 146.02C363.449 146.174 363.301 146.623 363.543 147.014C363.785 147.405 364.328 147.596 364.761 147.443ZM364.823 148.705L368.111 154.026L369.301 153.604L366.013 148.283L364.823 148.705ZM371.431 147.462C372.61 147.043 373.741 147.688 374.359 148.687L375.942 151.25L377.132 150.827L375.469 148.135C374.516 146.593 372.718 145.747 370.793 146.43C368.894 147.103 368.623 148.682 369.583 150.235L371.241 152.917L372.431 152.494L370.84 149.921C370.23 148.933 370.277 147.87 371.431 147.462ZM383.086 151.854C384.962 151.19 385.587 149.499 384.447 147.653L383.091 145.459C382.111 143.875 380.015 143.161 378.235 143.792C376.444 144.428 375.868 146.154 376.808 147.674C377.774 149.237 379.835 149.962 381.506 149.37C382.492 149.021 382.959 148.352 383.001 147.663L383.263 148.086C384.035 149.334 383.69 150.436 382.451 150.875C381.597 151.178 380.72 151.039 380.015 150.587L379.319 151.429C380.444 152.182 381.812 152.307 383.086 151.854ZM381.014 148.314C379.944 148.693 378.583 148.222 377.979 147.245C377.376 146.268 377.784 145.197 378.854 144.817C379.936 144.433 381.272 144.886 381.875 145.864C382.48 146.842 382.097 147.93 381.014 148.314ZM392.645 145.502C393.078 145.348 393.473 145.063 393.66 144.772L393.049 143.784C392.874 144.07 392.534 144.349 392.149 144.486C391.44 144.737 390.728 144.487 390.299 143.792L388.788 141.349L391.049 140.548L390.472 139.614L388.211 140.415L387.359 139.036L386.169 139.458L387.021 140.837L385.855 141.25L386.432 142.184L387.598 141.771L389.128 144.246C389.88 145.463 391.178 146.022 392.645 145.502ZM396.72 143.885L395.09 141.247C394.452 140.215 394.716 139.195 395.762 138.824C396.881 138.428 397.961 139.037 398.545 139.982L400.196 142.654L401.386 142.232L399.668 139.451C398.662 137.823 397.043 137.126 395.312 137.74C394.518 138.021 393.983 138.554 393.802 139.162L391.923 136.121L390.732 136.544L395.53 144.307L396.72 143.885ZM405.915 140.772C407.069 140.363 407.716 139.538 407.67 138.442L406.494 138.343C406.508 139.052 406.033 139.566 405.312 139.821C404.254 140.196 403.088 139.828 402.392 138.963L407.106 137.292L406.837 136.858C405.918 135.371 404.094 134.6 402.314 135.232C400.547 135.858 400.103 137.537 401.05 139.068C402.063 140.707 404.122 141.407 405.915 140.772ZM402.011 138.251C401.641 137.416 401.901 136.556 402.899 136.202C403.874 135.857 404.914 136.189 405.486 137.019L402.011 138.251ZM418.631 131.645C417.296 129.485 414.672 128.654 412.086 129.57L409.297 130.559L413.793 137.834L416.522 136.867C419.012 135.984 420.041 133.925 418.631 131.645ZM417.369 132.092C418.396 133.754 417.654 135.235 415.899 135.857L414.395 136.39L411.154 131.145L412.718 130.591C414.521 129.951 416.416 130.551 417.369 132.092ZM424.618 132.885C423.537 133.269 422.417 132.62 421.813 131.642L420.222 129.069L419.032 129.491L420.69 132.173C421.642 133.715 423.435 134.576 425.263 133.928C427.115 133.271 427.397 131.689 426.444 130.147L424.78 127.454L423.589 127.876L425.173 130.438C425.784 131.426 425.713 132.497 424.618 132.885ZM432.511 131.346C433.592 130.962 434.323 130.174 434.266 129.015L432.979 128.877C432.985 129.576 432.584 130.089 431.886 130.335C430.852 130.702 429.502 130.201 428.898 129.224C428.301 128.257 428.665 127.163 429.699 126.796C430.396 126.549 431.174 126.644 431.878 127.095L432.555 126.246C431.423 125.483 430.15 125.392 429.068 125.775C427.366 126.365 426.761 128.115 427.708 129.646C428.661 131.188 430.828 131.968 432.511 131.346ZM437.703 129.359L436.307 127.101L437.017 126.85C437.164 126.969 437.34 127.066 437.541 127.153L440.565 128.345L442.032 127.826L437.95 126.201C437.844 126.172 437.781 126.142 437.748 126.088C437.714 126.033 437.723 125.977 437.761 125.897L438.756 122.501L437.301 123.016L436.56 125.542C436.507 125.693 436.485 125.847 436.505 125.998L435.783 126.254L432.898 121.585L431.708 122.007L436.512 129.781L437.703 129.359ZM447.49 129.041C449.403 128.363 449.799 126.727 448.698 124.947L445.672 120.049L444.47 120.475L446.094 123.103C446.697 124.08 446.507 125.101 445.473 125.468C444.403 125.847 443.403 125.367 442.785 124.368L441.115 121.664L439.936 122.082L441.641 124.84C442.607 126.404 444.149 127.167 445.952 126.528C446.842 126.213 447.246 125.633 447.226 124.912L447.514 125.379C448.226 126.53 448.1 127.607 446.849 128.05C446.043 128.336 445.174 128.233 444.482 127.778L443.798 128.616C444.91 129.373 446.24 129.484 447.49 129.041ZM459.425 117.186C458.09 115.025 455.466 114.195 452.881 115.111L450.091 116.1L454.588 123.375L457.317 122.407C459.806 121.526 460.835 119.467 459.425 117.186ZM458.163 117.634C459.189 119.295 458.448 120.775 456.692 121.398L455.19 121.93L451.949 116.686L453.511 116.132C455.316 115.493 457.21 116.092 458.163 117.634ZM464.353 119.914L462.421 116.786C461.938 116.004 462.116 115.346 462.91 115.064C463.235 114.949 463.618 114.906 464.001 114.956L463.343 113.891C462.962 113.868 462.537 113.939 462.164 114.071C460.625 114.617 460.405 115.873 461.203 117.165L463.163 120.336L464.353 119.914ZM470.307 117.963C472.075 117.335 472.655 115.595 471.702 114.053C470.763 112.532 468.638 111.75 466.858 112.382C465.09 113.008 464.479 114.747 465.426 116.277C466.378 117.819 468.528 118.593 470.307 117.963ZM469.676 116.941C468.57 117.334 467.22 116.833 466.622 115.866C466.019 114.889 466.376 113.783 467.482 113.391C468.577 113.003 469.914 113.508 470.519 114.486C471.116 115.452 470.771 116.553 469.676 116.941ZM477.383 118.274L475.463 115.168C476.24 115.475 477.156 115.535 477.949 115.253C479.741 114.618 480.29 112.968 479.297 111.361C478.357 109.841 476.232 109.059 474.452 109.689C472.673 110.32 472.052 111.996 473.032 113.582L476.192 118.696L477.383 118.274ZM477.277 114.261C476.171 114.653 474.826 114.137 474.229 113.171C473.625 112.193 473.976 111.102 475.083 110.71C476.177 110.322 477.509 110.817 478.113 111.794C478.71 112.761 478.372 113.873 477.277 114.261ZM355.828 178.73L353.909 175.625C354.685 175.932 355.601 175.991 356.395 175.71C358.187 175.075 358.736 173.425 357.742 171.817C356.802 170.297 354.677 169.515 352.898 170.146C351.118 170.777 350.497 172.453 351.477 174.038L354.638 179.152L355.828 178.73ZM355.723 174.717C354.617 175.109 353.272 174.593 352.674 173.626C352.07 172.65 352.422 171.559 353.529 171.166C354.622 170.779 355.955 171.273 356.558 172.25C357.155 173.216 356.817 174.33 355.723 174.717ZM356.179 166.163L360.977 173.927L362.169 173.505L357.37 165.741L356.179 166.163ZM366.774 172.031C367.735 171.691 368.262 171.001 368.304 170.192L368.882 171.126L370.011 170.725L368.361 168.053C367.381 166.469 365.284 165.756 363.504 166.386C361.713 167.022 361.144 168.758 362.084 170.278C363.037 171.821 365.066 172.637 366.774 172.031ZM366.323 170.947C365.228 171.335 363.878 170.834 363.281 169.867C362.677 168.89 363.034 167.784 364.128 167.396C365.235 167.004 366.573 167.509 367.177 168.487C367.774 169.453 367.429 170.555 366.323 170.947ZM374.486 169.311C374.918 169.158 375.314 168.872 375.5 168.581L374.89 167.593C374.715 167.879 374.375 168.16 373.99 168.296C373.28 168.547 372.568 168.297 372.139 167.602L370.629 165.158L372.889 164.357L372.312 163.424L370.052 164.225L369.2 162.846L368.009 163.268L368.862 164.647L367.695 165.06L368.272 165.994L369.439 165.58L370.969 168.056C371.72 169.272 373.019 169.831 374.486 169.311ZM378.641 167.666L375.929 163.28L377.997 162.547L377.42 161.613L375.352 162.346L375.01 161.792C374.574 161.086 374.838 160.635 375.571 160.375C375.908 160.256 376.31 160.22 376.68 160.273L376.05 159.252C375.669 159.229 375.256 159.296 374.859 159.437C373.38 159.961 373.121 161.085 373.82 162.214L374.162 162.768L373.043 163.164L373.62 164.098L374.739 163.702L377.45 168.089L378.641 167.666ZM382.877 166.165L380.944 163.038C380.461 162.256 380.64 161.597 381.434 161.315C381.758 161.2 382.142 161.157 382.524 161.207L381.867 160.143C381.486 160.119 381.061 160.19 380.687 160.323C379.149 160.868 378.928 162.124 379.727 163.416L381.686 166.587L382.877 166.165ZM388.831 164.214C390.598 163.587 391.179 161.846 390.226 160.304C389.286 158.784 387.161 158.002 385.382 158.632C383.613 159.259 383.003 160.998 383.949 162.529C384.902 164.071 387.051 164.845 388.831 164.214ZM388.2 163.193C387.093 163.585 385.743 163.084 385.146 162.118C384.542 161.14 384.899 160.035 386.005 159.642C387.1 159.254 388.438 159.759 389.042 160.737C389.639 161.703 389.294 162.805 388.2 163.193ZM397.135 154.44C396.017 154.836 395.522 155.674 395.708 156.614C394.897 155.895 393.708 155.655 392.529 156.073C390.762 156.699 390.562 158.225 391.482 159.714L393.206 162.504L394.396 162.082L392.772 159.454C392.175 158.488 392.145 157.467 393.251 157.074C394.345 156.686 395.39 157.309 395.993 158.286L397.631 160.935L398.821 160.513L397.184 157.864C396.58 156.887 396.618 155.881 397.688 155.501C398.794 155.109 399.847 155.769 400.445 156.735L402.068 159.363L403.259 158.941L401.527 156.14C400.614 154.663 398.915 153.809 397.135 154.44ZM410.205 156.479L407.494 152.092L409.562 151.359L408.985 150.425L406.917 151.159L406.575 150.605C406.139 149.899 406.403 149.448 407.136 149.188C407.472 149.069 407.875 149.032 408.245 149.086L407.614 148.066C407.233 148.042 406.82 148.109 406.423 148.249C404.944 148.773 404.686 149.897 405.384 151.027L405.726 151.58L404.608 151.977L405.185 152.91L406.304 152.514L409.014 156.901L410.205 156.479ZM416.05 154.566C417.818 153.94 418.398 152.198 417.445 150.657C416.506 149.136 414.381 148.354 412.601 148.985C410.834 149.611 410.222 151.35 411.169 152.881C412.121 154.423 414.271 155.196 416.05 154.566ZM415.42 153.545C414.313 153.937 412.963 153.437 412.366 152.47C411.762 151.493 412.119 150.387 413.226 149.994C414.319 149.607 415.658 150.112 416.261 151.089C416.859 152.056 416.513 153.158 415.42 153.545ZM421.616 152.435L419.683 149.307C419.2 148.525 419.38 147.866 420.173 147.585C420.497 147.47 420.882 147.426 421.264 147.477L420.606 146.412C420.225 146.388 419.8 146.46 419.427 146.592C417.888 147.138 417.668 148.394 418.466 149.685L420.426 152.857L421.616 152.435ZM430.733 149.375C431.166 149.222 431.561 148.936 431.748 148.645L431.137 147.657C430.962 147.944 430.623 148.223 430.238 148.359C429.528 148.611 428.816 148.36 428.386 147.665L426.877 145.222L429.137 144.421L428.56 143.487L426.3 144.289L425.448 142.909L424.257 143.331L425.11 144.71L423.943 145.123L424.52 146.058L425.686 145.645L427.217 148.12C427.968 149.336 429.267 149.895 430.733 149.375ZM434.809 147.758L433.178 145.12C432.541 144.088 432.805 143.069 433.851 142.698C434.969 142.301 436.05 142.911 436.633 143.855L438.284 146.527L439.475 146.105L437.757 143.325C436.75 141.696 435.132 140.999 433.4 141.613C432.606 141.894 432.071 142.428 431.89 143.035L430.011 139.995L428.82 140.417L433.619 148.181L434.809 147.758ZM444.002 144.645C445.157 144.236 445.805 143.411 445.758 142.315L444.583 142.216C444.596 142.926 444.121 143.438 443.4 143.694C442.342 144.069 441.176 143.701 440.48 142.836L445.194 141.165L444.926 140.731C444.006 139.244 442.182 138.474 440.403 139.104C438.634 139.732 438.192 141.41 439.138 142.941C440.152 144.581 442.211 145.281 444.002 144.645ZM440.099 142.124C439.729 141.289 439.99 140.429 440.988 140.075C441.961 139.73 443.003 140.063 443.574 140.893L440.099 142.124ZM444.982 136.382C445.415 136.229 445.557 135.795 445.315 135.404C445.074 135.013 444.536 134.807 444.103 134.96C443.67 135.114 443.523 135.563 443.765 135.954C444.006 136.345 444.549 136.536 444.982 136.382ZM445.044 137.645L448.332 142.965L449.523 142.544L446.235 137.223L445.044 137.645ZM452.652 141.434L450.719 138.307C450.236 137.525 450.416 136.866 451.209 136.585C451.533 136.469 451.918 136.426 452.3 136.476L451.643 135.412C451.261 135.388 450.836 135.459 450.463 135.592C448.924 136.137 448.704 137.393 449.502 138.685L451.462 141.856L452.652 141.434ZM461.701 141.205L459.782 138.1C460.558 138.407 461.474 138.466 462.268 138.185C464.059 137.55 464.608 135.9 463.614 134.292C462.675 132.772 460.55 131.99 458.77 132.621C456.991 133.252 456.37 134.928 457.35 136.513L460.511 141.627L461.701 141.205ZM461.596 137.192C460.489 137.584 459.144 137.068 458.547 136.101C457.943 135.125 458.295 134.034 459.401 133.641C460.495 133.254 461.827 133.748 462.431 134.725C463.028 135.691 462.69 136.805 461.596 137.192ZM467.801 136.065L465.867 132.938C465.384 132.156 465.564 131.497 466.357 131.215C466.682 131.101 467.066 131.057 467.448 131.107L466.791 130.043C466.41 130.019 465.985 130.09 465.611 130.223C464.072 130.768 463.852 132.025 464.651 133.317L466.61 136.487L467.801 136.065ZM473.754 134.114C475.522 133.487 476.102 131.746 475.149 130.204C474.21 128.684 472.084 127.901 470.305 128.533C468.537 129.159 467.926 130.898 468.872 132.429C469.825 133.971 471.974 134.744 473.754 134.114ZM473.123 133.093C472.018 133.485 470.667 132.984 470.07 132.017C469.465 131.041 469.823 129.935 470.929 129.542C472.023 129.154 473.362 129.659 473.965 130.637C474.563 131.603 474.218 132.705 473.123 133.093ZM475.032 125.732C475.465 125.579 475.607 125.144 475.365 124.753C475.124 124.362 474.586 124.156 474.153 124.31C473.721 124.463 473.573 124.912 473.815 125.303C474.056 125.694 474.599 125.885 475.032 125.732ZM475.082 126.998L478.625 132.732C479.028 133.383 478.888 133.988 478.095 134.269L478.774 135.273C480.289 134.736 480.601 133.58 479.836 132.342L476.273 126.576L475.082 126.998ZM484.092 130.436C485.247 130.027 485.895 129.201 485.848 128.107L484.673 128.007C484.686 128.717 484.211 129.229 483.49 129.485C482.431 129.86 481.266 129.492 480.57 128.627L485.284 126.956L485.015 126.522C484.096 125.034 482.272 124.264 480.492 124.895C478.724 125.522 478.282 127.201 479.228 128.732C480.241 130.372 482.301 131.071 484.092 130.436ZM480.189 127.915C479.819 127.08 480.079 126.22 481.078 125.866C482.051 125.521 483.092 125.853 483.664 126.683L480.189 127.915ZM490.961 128.002C492.043 127.618 492.773 126.83 492.716 125.672L491.429 125.533C491.436 126.232 491.034 126.745 490.336 126.992C489.302 127.359 487.952 126.858 487.348 125.88C486.751 124.914 487.115 123.819 488.149 123.452C488.846 123.205 489.624 123.3 490.328 123.752L491.005 122.903C489.874 122.139 488.601 122.048 487.518 122.431C485.816 123.022 485.211 124.771 486.158 126.302C487.111 127.844 489.278 128.624 490.961 128.002ZM497.491 125.713C497.924 125.56 498.319 125.275 498.505 124.983L497.894 123.995C497.721 124.283 497.38 124.562 496.995 124.698C496.286 124.95 495.574 124.699 495.145 124.004L493.635 121.561L495.895 120.76L495.318 119.826L493.057 120.627L492.205 119.248L491.015 119.67L491.867 121.049L490.701 121.463L491.278 122.396L492.444 121.983L493.974 124.458C494.725 125.674 496.024 126.234 497.491 125.713Z" fill="black"/>
<path d="M487.013 250.04C506.936 242.979 514.073 222.671 502.954 204.68C491.836 186.69 466.672 177.83 446.749 184.891C426.826 191.953 419.688 212.261 430.807 230.252C441.926 248.242 467.09 257.102 487.013 250.04Z" fill="#0A0A0C"/>
<path d="M312.336 99.3379C318.977 96.9841 321.356 90.2146 317.65 84.2177C313.944 78.2209 305.556 75.2677 298.915 77.6215C292.274 79.9753 289.895 86.7448 293.601 92.7416C297.307 98.7384 305.695 101.692 312.336 99.3379Z" fill="#0A0A0B"/>
<path d="M303.779 89.2178C303.28 89.1172 302.712 89.1484 302.182 89.3359C301.077 89.7277 300.556 90.6525 301.018 91.401C301.303 91.8615 301.893 92.148 302.563 92.2094C302.661 92.2294 310.891 93.4279 310.993 93.4375C311.492 93.538 312.06 93.5069 312.59 93.3194C313.695 92.9276 314.216 92.0027 313.754 91.2542C313.469 90.7938 312.878 90.5073 312.209 90.4459C312.111 90.4259 303.881 89.2274 303.779 89.2178Z" fill="url(#paint1_radial_412_158)"/>
<path d="M300.188 83.4084C299.689 83.3079 299.122 83.339 298.592 83.5266C297.486 83.9184 296.965 84.8432 297.428 85.5917C297.713 86.0522 298.303 86.3386 298.973 86.4001C299.071 86.42 307.301 87.6186 307.403 87.6282C307.902 87.7287 308.469 87.6976 308.999 87.5093C310.105 87.1175 310.626 86.1934 310.163 85.4441C309.879 84.9837 309.288 84.698 308.618 84.6365C308.521 84.6166 300.291 83.418 300.188 83.4084Z" fill="url(#paint2_radial_412_158)"/>
<path opacity="0.97" d="M437.812 33.286L431.776 35.4251C429.155 36.3544 428.464 38.3196 429.927 40.6869L433.292 46.1304C434.759 48.5042 437.194 49.3615 439.815 48.4324L445.843 46.2958C448.465 45.3665 449.156 43.4014 447.693 41.034L444.324 35.584C442.869 33.2141 440.434 32.3568 437.812 33.286ZM437.888 44.6042C437.37 44.788 436.707 44.5549 436.418 44.0867C436.129 43.6184 436.317 43.0841 436.835 42.9002C437.354 42.7165 438.016 42.9495 438.305 43.4178C438.595 43.8861 438.407 44.4204 437.888 44.6042ZM438.134 39.7601C437.615 39.9439 436.954 39.7108 436.664 39.2425C436.375 38.7743 436.563 38.2399 437.081 38.0562C437.6 37.8723 438.262 38.1054 438.551 38.5737C438.841 39.042 438.653 39.5763 438.134 39.7601ZM443.204 42.7203C442.685 42.9041 442.023 42.671 441.733 42.2027C441.444 41.7345 441.632 41.2001 442.15 41.0164C442.669 40.8326 443.331 41.0657 443.62 41.5339C443.91 42.0022 443.723 42.5365 443.204 42.7203Z" fill="#0A0A0B"/>
<path d="M471.644 207.063L461.427 206.024C460.35 205.909 459.347 206.265 458.773 206.965L453.282 213.572C452.88 214.058 452.865 214.726 453.249 215.348C453.627 215.958 454.32 216.389 455.071 216.467L465.287 217.507C465.827 217.563 466.353 217.501 466.803 217.341C467.255 217.182 467.655 216.915 467.943 216.565L473.433 209.958C473.835 209.472 473.85 208.805 473.465 208.182C473.081 207.561 472.395 207.142 471.644 207.063Z" fill="url(#paint3_radial_412_158)"/>
<path opacity="0.4" d="M464.815 219.287L455.459 218.577C454.742 218.528 454.104 218.782 453.76 219.262C453.41 219.758 453.412 220.378 453.761 220.943L457.612 227.176C458.277 228.251 459.542 228.988 460.907 229.097L470.251 229.811C470.57 229.835 470.881 229.795 471.157 229.696C471.483 229.582 471.759 229.387 471.95 229.127C472.306 228.642 472.298 228.01 471.948 227.445L468.097 221.212C467.438 220.122 466.174 219.385 464.815 219.287Z" fill="url(#paint4_radial_412_158)"/>
<path opacity="0.4" d="M477.107 210.986C476.387 210.883 475.715 211.08 475.325 211.536L470.063 217.427C469.299 218.29 469.229 219.487 469.901 220.573L473.752 226.805C474.102 227.37 474.736 227.78 475.457 227.884C475.843 227.939 476.218 227.903 476.543 227.788C476.819 227.69 477.059 227.536 477.24 227.334L482.501 221.443C483.265 220.58 483.335 219.383 482.663 218.297L478.812 212.064C478.463 211.499 477.835 211.101 477.107 210.986Z" fill="url(#paint5_radial_412_158)"/>
<path d="M203.135 156.632C206.157 150.704 207.668 147.74 210.064 145.843C212.172 144.175 214.741 143.072 217.402 142.692C220.428 142.26 223.619 143.205 230.001 145.095L443.286 208.243C449.668 210.133 452.86 211.078 454.709 212.953C456.336 214.603 457.254 216.738 457.331 219.053C457.418 221.685 455.908 224.649 452.886 230.577L307.383 516.009C304.362 521.937 302.851 524.901 300.455 526.797C298.347 528.465 295.778 529.568 293.117 529.948C290.091 530.38 286.9 529.436 280.518 527.546L67.2328 464.397C60.8507 462.508 57.6597 461.563 55.8102 459.688C54.1833 458.038 53.2654 455.902 53.1881 453.588C53.1003 450.955 54.6112 447.991 57.633 442.064L203.135 156.632Z" fill="url(#paint6_radial_412_158)"/>
<path d="M359.392 219.95L282.472 197.176C279.063 196.167 274.991 197.916 273.377 201.082C271.763 204.249 273.218 207.634 276.627 208.643L353.546 231.417C356.955 232.426 361.027 230.678 362.641 227.511C364.256 224.345 362.801 220.96 359.392 219.95Z" fill="#0A0A0B"/>
<path d="M316.435 217.384C321.68 218.936 327.944 216.246 330.427 211.375C332.911 206.503 330.672 201.295 325.428 199.743C320.183 198.19 313.918 200.88 311.435 205.752C308.952 210.623 311.19 215.831 316.435 217.384Z" fill="#0A0A0B"/>
<path d="M194.272 256.764C198.061 257.885 201.82 257.201 204.214 255.657L206.885 250.417L202.839 249.219L200.858 253.171C199.543 253.756 197.946 253.801 196.066 253.244C192.704 252.25 191.597 249.21 193.297 245.876C194.943 242.648 198.462 240.889 201.682 241.842C203.961 242.516 204.957 243.908 205.116 245.782L209.41 245.013C209.442 241.733 206.977 239.237 203.701 238.267C198.032 236.589 191.667 239.425 189.051 244.559C186.434 249.693 188.659 255.103 194.272 256.764ZM220.181 264.008L221.948 260.542L212.119 257.632L214.008 253.928L223.067 256.609L224.834 253.144L215.775 250.461L217.663 246.756L227.321 249.615L229.088 246.15L218.946 243.146C216.297 242.362 214.61 243.355 213.572 245.392L207.879 256.559C206.84 258.597 207.219 260.17 209.868 260.955L220.181 264.008ZM246.609 251.337L231.169 246.765L229.347 250.338L234.989 252.008L227.731 266.244L231.891 267.475L239.147 253.24L244.789 254.91L246.609 251.337ZM255.921 274.591C260.508 275.948 264.597 275.453 266.377 271.96C267.524 269.711 266.821 268.194 265.169 267.126C267.317 267.031 269.185 266 270.224 263.963C271.775 260.92 269.842 258.216 265.056 256.798L257.649 254.606L248.571 272.414L255.921 274.591ZM260.19 259.012L263.666 260.041C265.802 260.674 266.578 261.726 265.903 263.049C265.161 264.504 263.758 264.942 261.479 264.267L258.032 263.246L260.19 259.012ZM256.413 266.422L259.86 267.442C262.196 268.134 263.121 268.956 262.353 270.465C261.516 272.105 259.79 272.081 257.768 271.482L254.349 270.471L256.413 266.422ZM281.61 282.197L283.377 278.73L273.548 275.819L275.437 272.115L284.496 274.798L286.263 271.331L277.204 268.648L279.093 264.944L288.75 267.804L290.517 264.337L280.375 261.334C277.726 260.549 276.039 261.542 275 263.581L269.308 274.747C268.269 276.785 268.648 278.359 271.297 279.143L281.61 282.197ZM289.445 284.516L296.162 271.338L297.549 285.728C297.677 286.892 298.528 287.601 299.753 287.964C301.263 288.41 303.171 287.818 304.076 286.045L311.913 270.672L307.981 269.507L301.304 282.606L299.877 268.296C299.749 267.132 298.968 266.413 297.715 266.042C296.147 265.577 294.226 266.196 293.322 267.969L285.485 283.344L289.445 284.516ZM321.505 294.008L323.272 290.542L313.444 287.631L315.332 283.927L324.392 286.61L326.159 283.143L317.099 280.46L318.987 276.756L328.646 279.616L330.412 276.149L320.271 273.146C317.62 272.361 315.935 273.354 314.896 275.393L309.203 286.559C308.165 288.597 308.542 290.171 311.192 290.955L321.505 294.008ZM329.54 296.387L332.615 290.354L341.561 293.002L343.368 289.457L334.423 286.808L336.797 282.151L346.398 284.993L348.218 281.42L338.134 278.435C335.512 277.659 333.798 278.644 332.759 280.681L325.38 295.155L329.54 296.387ZM351.573 282.414L342.494 300.223L346.654 301.454L355.732 283.646L351.573 282.414ZM374.113 289.088L358.672 284.516L356.851 288.089L362.492 289.759L355.235 303.994L359.394 305.226L366.651 290.99L372.292 292.66L374.113 289.088ZM374.012 309.951C378.087 311.157 382.521 309.789 384.153 306.588C386.217 302.539 382.943 300.473 380.323 299.179C378.419 298.22 377.012 297.377 377.74 295.948C378.294 294.863 379.727 294.496 381.294 294.96C383.231 295.533 384.08 296.698 384.126 298.022L388.425 297.437C388.495 294.533 386.448 292.374 383.285 291.438C379.326 290.266 375.092 291.753 373.5 294.876C371.45 298.898 374.867 301.006 377.515 302.307C379.348 303.215 380.736 303.901 379.98 305.382C379.333 306.652 377.615 306.935 375.82 306.405C373.826 305.814 372.824 304.757 372.858 303.274L368.56 303.859C368.49 306.762 370.566 308.93 374.012 309.951Z" fill="black"/>
<path opacity="0.6" d="M184.07 277.267C185.502 274.459 184.271 271.934 181.005 270.967L177.479 269.923L172.659 279.378L176.108 280.4C179.253 281.331 182.559 280.231 184.07 277.267ZM182.475 276.794C181.374 278.955 178.995 279.745 176.777 279.087L174.878 278.525L178.352 271.708L180.328 272.293C182.607 272.968 183.496 274.791 182.475 276.794ZM186.918 283.795C189.152 284.457 191.703 283.328 192.725 281.323C193.732 279.349 192.865 277.207 190.616 276.541C188.383 275.88 185.808 276.986 184.794 278.975C183.772 280.98 184.67 283.129 186.918 283.795ZM187.595 282.469C186.196 282.055 185.651 280.691 186.29 279.435C186.938 278.165 188.549 277.44 189.947 277.854C191.33 278.264 191.861 279.623 191.214 280.893C190.573 282.149 188.977 282.878 187.595 282.469ZM209.831 282.198C208.418 281.78 207.011 282.175 206.053 283.126C206.22 281.941 205.501 280.916 204.012 280.475C201.778 279.814 199.802 281.016 198.817 282.949L196.968 286.576L198.471 287.022L200.212 283.606C200.853 282.35 202.037 281.433 203.435 281.847C204.818 282.257 204.961 283.517 204.315 284.787L202.559 288.231L204.063 288.677L205.818 285.233C206.466 283.963 207.689 283.107 209.042 283.507C210.439 283.921 210.546 285.22 209.907 286.476L208.165 289.892L209.67 290.337L211.526 286.696C212.504 284.776 212.081 282.864 209.831 282.198ZM215 292.11C216.216 292.469 217.477 292.226 218.471 291.546L217.853 292.759L219.281 293.182L221.051 289.71C222.1 287.65 221.175 285.589 218.926 284.923C216.662 284.253 214.127 285.386 213.119 287.362C212.097 289.366 212.843 291.471 215 292.11ZM215.904 290.851C214.522 290.441 213.976 289.078 214.616 287.822C215.264 286.551 216.875 285.827 218.258 286.236C219.655 286.649 220.186 288.009 219.539 289.279C218.898 290.535 217.303 291.265 215.904 290.851ZM224.03 294.767C225.61 295.235 227.402 294.808 228.072 293.495C229.403 290.883 224.607 290.65 225.327 289.239C225.608 288.689 226.388 288.529 227.087 288.736C227.771 288.939 228.271 289.33 228.281 290.032L229.744 289.767C229.683 288.823 229.043 287.951 227.661 287.542C226.035 287.06 224.427 287.608 223.808 288.821C222.463 291.461 227.294 291.624 226.552 293.077C226.243 293.684 225.424 293.816 224.574 293.563C223.753 293.321 223.275 292.887 223.247 292.082L221.79 292.334C221.843 293.535 222.647 294.358 224.03 294.767ZM231.464 296.968C233.044 297.436 234.836 297.008 235.505 295.696C236.836 293.085 232.041 292.85 232.761 291.44C233.042 290.889 233.822 290.73 234.521 290.938C235.205 291.14 235.705 291.532 235.714 292.233L237.178 291.967C237.117 291.024 236.477 290.152 235.095 289.743C233.468 289.262 231.861 289.808 231.242 291.022C229.897 293.661 234.727 293.825 233.986 295.279C233.677 295.886 232.858 296.016 232.008 295.765C231.187 295.521 230.709 295.088 230.681 294.284L229.224 294.534C229.277 295.736 230.081 296.559 231.464 296.968ZM244.044 300.709C246.292 301.375 248.808 300.317 249.851 298.27L253.24 291.623L251.735 291.177L249.663 295.21C249.371 294.409 248.668 293.73 247.666 293.433C245.417 292.766 242.992 293.819 241.92 295.922C240.905 297.912 241.78 300.038 244.044 300.709ZM244.712 299.396C243.33 298.987 242.784 297.623 243.431 296.353C244.072 295.097 245.682 294.372 247.066 294.782C248.463 295.196 248.994 296.555 248.354 297.811C247.706 299.081 246.111 299.81 244.712 299.396ZM251.754 302.796L253.826 298.733C254.344 297.716 255.276 297.262 256.278 297.558C256.688 297.679 257.064 297.904 257.328 298.21L258.033 296.827C257.739 296.545 257.297 296.316 256.825 296.177C254.881 295.602 253.207 296.551 252.351 298.231L250.25 302.352L251.754 302.796ZM259.089 305.163C261.324 305.825 263.875 304.696 264.896 302.693C265.903 300.717 265.036 298.575 262.787 297.91C260.554 297.249 257.979 298.354 256.965 300.343C255.944 302.348 256.841 304.498 259.089 305.163ZM259.766 303.837C258.368 303.423 257.822 302.059 258.462 300.804C259.109 299.534 260.72 298.808 262.118 299.222C263.501 299.632 264.032 300.991 263.385 302.261C262.745 303.517 261.148 304.247 259.766 303.837ZM264.692 310.282L266.749 306.245C267.04 307.046 267.743 307.725 268.747 308.022C271.01 308.693 273.427 307.621 274.492 305.534C275.499 303.558 274.632 301.416 272.383 300.751C270.134 300.085 267.627 301.129 266.576 303.189L263.188 309.837L264.692 310.282ZM269.355 306.692C267.956 306.278 267.432 304.905 268.073 303.649C268.721 302.379 270.31 301.664 271.707 302.078C273.09 302.487 273.628 303.832 272.981 305.102C272.34 306.358 270.737 307.102 269.355 306.692ZM274.307 313.129L276.364 309.093C276.655 309.893 277.358 310.573 278.362 310.87C280.625 311.54 283.042 310.469 284.107 308.38C285.114 306.404 284.247 304.264 281.998 303.597C279.749 302.932 277.241 303.976 276.191 306.037L272.802 312.683L274.307 313.129ZM278.97 309.539C277.571 309.125 277.047 307.752 277.688 306.496C278.336 305.226 279.924 304.51 281.322 304.924C282.705 305.334 283.243 306.679 282.596 307.949C281.956 309.204 280.352 309.949 278.97 309.539ZM289.308 304.381C289.854 304.543 290.488 304.26 290.748 303.752C291.006 303.244 290.797 302.695 290.249 302.532C289.703 302.37 289.046 302.663 288.788 303.172C288.528 303.68 288.761 304.219 289.308 304.381ZM287.866 305.53L284.34 312.445L285.844 312.89L289.369 305.975L287.866 305.53ZM294.914 308.965C296.404 309.405 296.595 310.746 295.933 312.044L294.236 315.375L295.739 315.82L297.524 312.32C298.545 310.316 298.029 308.344 295.599 307.624C293.198 306.914 291.1 308.112 290.071 310.13L288.294 313.616L289.799 314.061L291.503 310.716C292.158 309.432 293.456 308.533 294.914 308.965ZM299.547 320.797C301.917 321.499 304.448 320.445 305.671 318.046L307.125 315.195C308.175 313.135 307.25 311.073 305.001 310.408C302.737 309.738 300.208 310.857 299.201 312.833C298.165 314.865 299.044 316.912 301.157 317.538C302.403 317.906 303.587 317.64 304.441 317.065L304.16 317.615C303.333 319.238 301.737 319.967 300.171 319.504C299.093 319.184 298.517 318.461 298.458 317.583L296.873 317.845C296.931 319.275 297.937 320.32 299.547 320.797ZM301.993 316.275C300.641 315.874 300.05 314.529 300.697 313.259C301.344 311.989 302.957 311.33 304.309 311.73C305.677 312.135 306.267 313.446 305.62 314.716C304.972 315.988 303.36 316.68 301.993 316.275ZM315.023 321.724C316.238 322.084 317.5 321.84 318.493 321.16L317.874 322.374L319.302 322.796L321.072 319.325C322.123 317.264 321.197 315.204 318.948 314.537C316.684 313.867 314.148 315.001 313.141 316.977C312.12 318.98 312.865 321.085 315.023 321.724ZM315.927 320.465C314.544 320.055 313.997 318.692 314.638 317.436C315.285 316.166 316.896 315.441 318.279 315.85C319.677 316.264 320.208 317.623 319.561 318.893C318.921 320.149 317.324 320.879 315.927 320.465ZM328.077 318.783C329.567 319.225 329.758 320.564 329.096 321.863L327.398 325.193L328.902 325.639L330.687 322.138C331.708 320.134 331.192 318.162 328.76 317.443C326.36 316.732 324.263 317.93 323.234 319.948L321.457 323.434L322.962 323.879L324.666 320.534C325.321 319.25 326.618 318.352 328.077 318.783ZM334.465 327.481C336.714 328.146 339.23 327.088 340.273 325.042L343.661 318.395L342.157 317.95L340.085 321.981C339.794 321.18 339.09 320.501 338.087 320.204C335.839 319.539 333.413 320.591 332.342 322.693C331.328 324.683 332.201 326.811 334.465 327.481ZM335.135 326.168C333.752 325.758 333.205 324.395 333.853 323.125C334.493 321.869 336.104 321.144 337.487 321.553C338.885 321.967 339.416 323.326 338.775 324.582C338.129 325.852 336.532 326.582 335.135 326.168ZM346.658 334.745C349.028 335.447 351.559 334.393 352.782 331.994L354.235 329.143C355.286 327.083 354.36 325.022 352.111 324.357C349.847 323.686 347.318 324.805 346.31 326.781C345.275 328.813 346.155 330.861 348.267 331.485C349.512 331.854 350.698 331.588 351.551 331.012L351.27 331.562C350.442 333.186 348.847 333.916 347.282 333.452C346.204 333.133 345.627 332.41 345.568 331.531L343.983 331.793C344.041 333.224 345.047 334.268 346.658 334.745ZM349.103 330.223C347.751 329.822 347.159 328.478 347.807 327.208C348.455 325.938 350.067 325.278 351.419 325.678C352.787 326.083 353.377 327.395 352.73 328.665C352.083 329.935 350.47 330.628 349.103 330.223ZM358.02 334.438C359.479 334.87 361.003 334.591 362.26 333.599L361.386 332.706C360.557 333.337 359.549 333.462 358.638 333.192C357.301 332.796 356.753 331.675 357.19 330.441L363.146 332.204L363.434 331.64C364.419 329.706 363.791 327.782 361.543 327.117C359.31 326.455 356.947 327.623 355.933 329.613C354.847 331.745 355.756 333.768 358.02 334.438ZM357.711 329.555C358.388 328.57 359.626 327.995 360.887 328.368C362.118 328.732 362.603 329.737 362.103 330.856L357.711 329.555ZM366.654 337.027C367.201 337.189 367.873 337.209 368.375 337.081L369.029 335.797C368.542 335.929 367.924 335.941 367.438 335.797C366.542 335.532 366.237 334.825 366.698 333.922L368.317 330.746L371.174 331.592L371.792 330.378L368.935 329.532L369.85 327.74L368.345 327.295L367.431 329.088L365.957 328.651L365.339 329.865L366.813 330.301L365.173 333.519C364.367 335.1 364.8 336.479 366.654 337.027ZM223.433 307.543C222.019 307.126 220.611 307.521 219.654 308.472C219.821 307.287 219.102 306.261 217.613 305.821C215.38 305.16 213.403 306.361 212.417 308.295L210.568 311.922L212.073 312.366L213.814 308.952C214.454 307.696 215.638 306.779 217.036 307.193C218.418 307.603 218.563 308.863 217.915 310.133L216.16 313.577L217.664 314.023L219.419 310.578C220.067 309.308 221.29 308.453 222.642 308.853C224.041 309.267 224.148 310.566 223.508 311.822L221.767 315.237L223.27 315.683L225.126 312.042C226.105 310.122 225.681 308.21 223.433 307.543ZM228.844 317.528C231.079 318.189 233.63 317.06 234.651 315.056C235.658 313.08 234.792 310.939 232.542 310.274C230.309 309.612 227.734 310.718 226.72 312.708C225.699 314.712 226.596 316.862 228.844 317.528ZM229.521 316.201C228.123 315.787 227.576 314.423 228.217 313.167C228.864 311.897 230.475 311.172 231.874 311.586C233.256 311.995 233.787 313.354 233.14 314.624C232.5 315.881 230.903 316.61 229.521 316.201ZM236.065 319.47L238.137 315.406C238.655 314.39 239.587 313.934 240.589 314.231C240.999 314.353 241.375 314.578 241.639 314.884L242.343 313.501C242.05 313.219 241.608 312.99 241.136 312.85C239.192 312.274 237.518 313.225 236.661 314.905L234.561 319.025L236.065 319.47ZM243.377 321.814C244.836 322.246 246.36 321.966 247.617 320.974L246.744 320.082C245.915 320.714 244.907 320.837 243.995 320.568C242.658 320.172 242.111 319.051 242.547 317.816L248.504 319.58L248.791 319.015C249.776 317.081 249.149 315.158 246.9 314.492C244.667 313.83 242.305 315 241.291 316.989C240.204 319.121 241.113 321.144 243.377 321.814ZM243.068 316.931C243.746 315.946 244.984 315.37 246.245 315.743C247.476 316.108 247.96 317.112 247.46 318.231L243.068 316.931ZM256.928 325.843C259.177 326.509 261.706 325.389 262.721 323.399C263.793 321.297 262.951 319.277 260.687 318.607C259.684 318.31 258.564 318.449 257.639 318.89L259.697 314.854L258.193 314.409L254.805 321.055C253.762 323.102 254.68 325.176 256.928 325.843ZM257.598 324.53C256.199 324.116 255.668 322.757 256.316 321.487C256.956 320.23 258.552 319.501 259.95 319.915C261.333 320.325 261.864 321.684 261.224 322.94C260.576 324.21 258.98 324.94 257.598 324.53ZM266.065 328.531C267.523 328.963 269.047 328.684 270.305 327.692L269.43 326.799C268.601 327.43 267.594 327.555 266.683 327.285C265.346 326.889 264.797 325.768 265.235 324.534L271.19 326.297L271.478 325.733C272.464 323.799 271.836 321.875 269.588 321.21C267.353 320.548 264.992 321.716 263.977 323.706C262.891 325.838 263.801 327.861 266.065 328.531ZM265.756 323.648C266.433 322.663 267.67 322.088 268.932 322.461C270.162 322.825 270.647 323.829 270.147 324.949L265.756 323.648ZM278.024 325.282C279.512 325.724 279.705 327.063 279.042 328.362L277.344 331.692L278.849 332.138L280.633 328.638C281.655 326.633 281.139 324.662 278.707 323.942C276.306 323.231 274.21 324.429 273.181 326.447L271.404 329.933L272.907 330.378L274.613 327.034C275.268 325.749 276.565 324.851 278.024 325.282ZM284.404 333.961C285.863 334.393 287.386 334.114 288.644 333.122L287.77 332.229C286.941 332.86 285.933 332.985 285.022 332.715C283.685 332.319 283.137 331.198 283.574 329.964L289.53 331.727L289.818 331.163C290.803 329.229 290.175 327.305 287.927 326.639C285.694 325.978 283.331 327.146 282.317 329.136C281.231 331.267 282.14 333.291 284.404 333.961ZM284.095 329.078C284.772 328.093 286.01 327.518 287.271 327.891C288.502 328.255 288.987 329.26 288.487 330.378L284.095 329.078ZM292.037 336.043L294.944 330.341L297.998 331.246L295.092 336.947L296.596 337.392L300.121 330.476L295.563 329.127L295.908 328.45C296.375 327.532 297.132 327.318 298.059 327.593C298.485 327.718 298.867 327.962 299.116 328.263L299.814 326.894C299.521 326.612 299.093 326.388 298.591 326.239C296.723 325.686 295.174 326.495 294.425 327.962L294.059 328.682L292.645 328.264L292.026 329.478L293.44 329.895L290.534 335.597L292.037 336.043ZM302.118 339.239C302.665 339.401 303.338 339.421 303.84 339.293L304.494 338.009C304.007 338.141 303.389 338.153 302.903 338.009C302.007 337.744 301.703 337.036 302.163 336.133L303.781 332.957L306.638 333.804L307.257 332.59L304.4 331.744L305.314 329.952L303.81 329.506L302.896 331.298L301.422 330.863L300.803 332.076L302.277 332.512L300.637 335.73C299.832 337.31 300.265 338.69 302.118 339.239ZM308.11 340.98C309.691 341.448 311.483 341.02 312.152 339.708C313.482 337.097 308.688 336.863 309.408 335.452C309.688 334.902 310.469 334.742 311.168 334.949C311.851 335.152 312.351 335.544 312.361 336.245L313.825 335.98C313.764 335.036 313.124 334.164 311.741 333.755C310.116 333.274 308.508 333.821 307.889 335.034C306.544 337.673 311.375 337.837 310.633 339.291C310.324 339.898 309.505 340.028 308.654 339.777C307.834 339.534 307.356 339.1 307.328 338.296L305.871 338.547C305.924 339.747 306.728 340.571 308.11 340.98Z" fill="black"/>
<path d="M195.033 455.538C220.207 462.991 250.278 450.078 262.198 426.695C274.117 403.312 263.372 378.314 238.198 370.861C213.024 363.407 182.953 376.321 171.034 399.704C159.114 423.087 169.859 448.084 195.033 455.538Z" fill="#0A0A0C"/>
<path d="M226.073 203.827C234.465 206.312 244.488 202.007 248.461 194.213C252.434 186.419 248.853 178.086 240.461 175.601C232.07 173.117 222.047 177.421 218.073 185.216C214.1 193.01 217.682 201.343 226.073 203.827Z" fill="#0A0A0B"/>
<path d="M230.834 189.097C230.533 188.667 230.017 188.306 229.347 188.107C227.951 187.694 226.416 188.147 225.919 189.121C225.614 189.719 225.774 190.374 226.266 190.887C226.326 190.971 231.851 197.657 231.926 197.736C232.228 198.166 232.744 198.527 233.414 198.725C234.81 199.139 236.346 198.685 236.842 197.712C237.147 197.114 236.987 196.458 236.495 195.946C236.436 195.862 230.909 189.175 230.834 189.097Z" fill="url(#paint7_radial_412_158)"/>
<path d="M234.684 181.546C234.382 181.116 233.866 180.755 233.196 180.557C231.8 180.143 230.264 180.597 229.769 181.57C229.463 182.168 229.623 182.824 230.115 183.336C230.174 183.42 235.701 190.107 235.776 190.185C236.077 190.615 236.593 190.976 237.263 191.175C238.659 191.588 240.194 191.135 240.69 190.161C240.995 189.563 240.836 188.908 240.344 188.395C240.284 188.311 234.759 181.624 234.684 181.546Z" fill="url(#paint8_radial_412_158)"/>
<path opacity="0.97" d="M410.173 231.855L402.546 229.598C399.234 228.617 396.324 229.866 394.755 232.943L391.148 240.019C389.575 243.103 390.615 245.523 393.928 246.504L401.545 248.759C404.858 249.74 407.768 248.49 409.336 245.413L412.947 238.329C414.525 235.255 413.485 232.836 410.173 231.855ZM396.835 241.828C396.179 241.634 395.897 240.977 396.207 240.368C396.517 239.759 397.309 239.42 397.964 239.614C398.619 239.808 398.902 240.465 398.592 241.074C398.281 241.683 397.491 242.022 396.835 241.828ZM402.779 237.751C402.123 237.557 401.841 236.899 402.151 236.291C402.461 235.682 403.252 235.342 403.908 235.536C404.562 235.73 404.846 236.388 404.536 236.997C404.225 237.605 403.434 237.945 402.779 237.751ZM403.551 243.817C402.896 243.623 402.613 242.966 402.923 242.357C403.234 241.748 404.024 241.409 404.68 241.603C405.336 241.797 405.618 242.454 405.308 243.063C404.998 243.672 404.207 244.011 403.551 243.817Z" fill="#0A0A0B"/>
<path d="M232.953 407.343L225.563 399.436C224.787 398.598 223.522 398.223 222.207 398.442L209.751 400.474C208.836 400.625 208.033 401.199 207.621 402.008C207.216 402.802 207.292 403.653 207.833 404.237L215.223 412.144C215.61 412.563 216.128 412.869 216.699 413.037C217.268 413.206 217.921 413.247 218.579 413.137L231.035 411.107C231.95 410.954 232.753 410.38 233.165 409.571C233.577 408.763 233.494 407.926 232.953 407.343Z" fill="url(#paint9_radial_412_158)"/>
<path opacity="0.4" d="M212.716 413.382L205.662 406.352C205.114 405.818 204.276 405.604 203.416 405.789C202.534 405.984 201.801 406.528 201.426 407.264L197.297 415.364C196.585 416.76 196.779 418.273 197.802 419.304L204.842 426.328C205.082 426.569 205.393 426.745 205.742 426.849C206.153 426.971 206.617 426.99 207.086 426.892C207.961 426.71 208.702 426.151 209.077 425.417L213.206 417.316C213.941 415.91 213.746 414.397 212.716 413.382Z" fill="url(#paint10_radial_412_158)"/>
<path opacity="0.4" d="M232.918 414.523C232.432 413.94 231.632 413.652 230.763 413.784L219.347 415.345C217.68 415.578 216.205 416.579 215.485 417.991L211.356 426.091C210.981 426.826 211.032 427.619 211.518 428.203C211.776 428.517 212.136 428.742 212.547 428.864C212.896 428.967 213.281 428.996 213.673 428.943L225.089 427.383C226.755 427.148 228.231 426.147 228.951 424.736L233.08 416.636C233.455 415.901 233.396 415.122 232.918 414.523Z" fill="url(#paint11_radial_412_158)"/>
<path d="M544 148.123C584.336 137.51 611.006 136.665 616.984 147.907C632.023 176.19 510.402 270.268 345.336 358.035C180.271 445.802 34.2679 494.024 19.2295 465.741C11.7243 451.626 38.2568 421.123 87.24 383.196" stroke="url(#paint12_linear_412_158)" stroke-width="2"/>
<path d="M268 91.694C93.5002 192.694 41.0001 243.195 54.228 265.954C66.4755 287.027 115 278.695 145.126 269.113" stroke="url(#paint13_linear_412_158)" stroke-width="2"/>
<path d="M614 117.696C609.306 143.196 605.5 147.002 580 151.696C605.5 156.391 609.306 160.196 614 185.696C618.694 160.196 622.5 156.391 648 151.696C622.5 147.002 618.694 143.196 614 117.696Z" fill="white"/>
<path d="M58.5424 229.696C54.4634 251.853 51.1567 255.16 29 259.239C51.1568 263.318 54.4634 266.624 58.5424 288.781C62.6214 266.624 65.9279 263.318 88.0848 259.239C65.9279 255.16 62.6212 251.853 58.5424 229.696Z" fill="white"/>
<path d="M44.5 200.696C41.9456 214.571 39.8749 216.642 26 219.196C39.875 221.751 41.9456 223.821 44.5 237.696C47.0544 223.821 49.125 221.751 63 219.196C49.125 216.642 47.0542 214.571 44.5 200.696Z" fill="white"/>
<path d="M627.5 177.696C625.222 190.071 623.375 191.918 611 194.196C623.375 196.474 625.222 198.321 627.5 210.696C629.778 198.321 631.625 196.474 644 194.196C631.625 191.918 629.778 190.071 627.5 177.696Z" fill="white"/>
<defs>
<radialGradient id="paint0_radial_412_158" cx="0" cy="0" r="1" gradientUnits="userSpaceOnUse" gradientTransform="translate(354.102 35.7241) rotate(58.2829) scale(288.797 204.966)">
<stop offset="0.144704" stop-color="#FF9DEF"/>
<stop offset="0.500728" stop-color="#FF12E7"/>
<stop offset="1" stop-color="#EB00B7"/>
</radialGradient>
<radialGradient id="paint1_radial_412_158" cx="0" cy="0" r="1" gradientUnits="userSpaceOnUse" gradientTransform="translate(312.647 89.4628) rotate(160.484) scale(11.1628 7.23106)">
<stop offset="0.144704" stop-color="#FF9DEF"/>
<stop offset="0.500728" stop-color="#FF12E7"/>
<stop offset="1" stop-color="#EB00B7"/>
</radialGradient>
<radialGradient id="paint2_radial_412_158" cx="0" cy="0" r="1" gradientUnits="userSpaceOnUse" gradientTransform="translate(309.056 83.6534) rotate(160.484) scale(11.1628 7.23103)">
<stop offset="0.144704" stop-color="#FF9DEF"/>
<stop offset="0.500728" stop-color="#FF12E7"/>
<stop offset="1" stop-color="#EB00B7"/>
</radialGradient>
<radialGradient id="paint3_radial_412_158" cx="0" cy="0" r="1" gradientUnits="userSpaceOnUse" gradientTransform="translate(459.911 206.189) rotate(58.2829) scale(13.1102 20.9641)">
<stop offset="0.144704" stop-color="#FF9DEF"/>
<stop offset="0.500728" stop-color="#FF12E7"/>
<stop offset="1" stop-color="#EB00B7"/>
</radialGradient>
<radialGradient id="paint4_radial_412_158" cx="0" cy="0" r="1" gradientUnits="userSpaceOnUse" gradientTransform="translate(458.572 217.265) rotate(58.2829) scale(16.2898 12.0539)">
<stop offset="0.144704" stop-color="#FF9DEF"/>
<stop offset="0.500728" stop-color="#FF12E7"/>
<stop offset="1" stop-color="#EB00B7"/>
</radialGradient>
<radialGradient id="paint5_radial_412_158" cx="0" cy="0" r="1" gradientUnits="userSpaceOnUse" gradientTransform="translate(471.997 212.501) rotate(58.2829) scale(16.2951 12.0537)">
<stop offset="0.144704" stop-color="#FF9DEF"/>
<stop offset="0.500728" stop-color="#FF12E7"/>
<stop offset="1" stop-color="#EB00B7"/>
</radialGradient>
<radialGradient id="paint6_radial_412_158" cx="0" cy="0" r="1" gradientUnits="userSpaceOnUse" gradientTransform="translate(336.643 176.669) rotate(117.011) scale(358.396 256.091)">
<stop offset="0.144704" stop-color="#FFFB9D"/>
<stop offset="0.500728" stop-color="#FFD912"/>
<stop offset="1" stop-color="#EBA900"/>
</radialGradient>
<radialGradient id="paint7_radial_412_158" cx="0" cy="0" r="1" gradientUnits="userSpaceOnUse" gradientTransform="translate(238.028 195.385) rotate(-163.507) scale(13.8652 9.02683)">
<stop offset="0.144704" stop-color="#FFFB9D"/>
<stop offset="0.500728" stop-color="#FFD912"/>
<stop offset="1" stop-color="#EBA900"/>
</radialGradient>
<radialGradient id="paint8_radial_412_158" cx="0" cy="0" r="1" gradientUnits="userSpaceOnUse" gradientTransform="translate(241.877 187.834) rotate(-163.507) scale(13.8652 9.02678)">
<stop offset="0.144704" stop-color="#FFFB9D"/>
<stop offset="0.500728" stop-color="#FFD912"/>
<stop offset="1" stop-color="#EBA900"/>
</radialGradient>
<radialGradient id="paint9_radial_412_158" cx="0" cy="0" r="1" gradientUnits="userSpaceOnUse" gradientTransform="translate(224.087 398.542) rotate(117.011) scale(16.2697 26.1934)">
<stop offset="0.144704" stop-color="#FFFB9D"/>
<stop offset="0.500728" stop-color="#FFD912"/>
<stop offset="1" stop-color="#EBA900"/>
</radialGradient>
<radialGradient id="paint10_radial_412_158" cx="0" cy="0" r="1" gradientUnits="userSpaceOnUse" gradientTransform="translate(209.842 407.334) rotate(117.011) scale(20.2155 15.0606)">
<stop offset="0.144704" stop-color="#FFFB9D"/>
<stop offset="0.500728" stop-color="#FFD912"/>
<stop offset="1" stop-color="#EBA900"/>
</radialGradient>
<radialGradient id="paint11_radial_412_158" cx="0" cy="0" r="1" gradientUnits="userSpaceOnUse" gradientTransform="translate(226.812 412.351) rotate(117.011) scale(20.2222 15.0604)">
<stop offset="0.144704" stop-color="#FFFB9D"/>
<stop offset="0.500728" stop-color="#FFD912"/>
<stop offset="1" stop-color="#EBA900"/>
</radialGradient>
<linearGradient id="paint12_linear_412_158" x1="-11.5" y1="424.196" x2="603" y2="142.196" gradientUnits="userSpaceOnUse">
<stop stop-color="#0A0A0C"/>
<stop offset="0.177379" stop-color="#FFF8B6"/>
<stop offset="0.791667" stop-color="#FFF8B6"/>
<stop offset="1"/>
</linearGradient>
<linearGradient id="paint13_linear_412_158" x1="297.5" y1="78.1963" x2="79" y2="313.196" gradientUnits="userSpaceOnUse">
<stop stop-color="#0A0A0C"/>
<stop offset="0.601831" stop-color="#FFF8B6"/>
<stop offset="1" stop-color="#0A0A0C"/>
</linearGradient>
</defs>
</svg>
