<svg id="Layer_1" data-name="Layer 1" xmlns="http://www.w3.org/2000/svg" viewBox="0 0 40 40"><defs><style>.cls-1{fill:#fbd107;}.cls-2{fill:#fecf0a;}.cls-3{fill:#f2b91b;}</style></defs><path class="cls-1" d="M25.55,17.28a.93.93,0,0,0-.22-.51A1,1,0,1,0,23.86,18a.94.94,0,0,0,.79.34.71.71,0,0,1,.1-1A.73.73,0,0,1,25.55,17.28Z"/><path class="cls-2" d="M2.32,19l-.1,0a3.41,3.41,0,0,0-.33-.17,1.33,1.33,0,0,0-1,0,.73.73,0,0,0-.49.52.74.74,0,0,0,0,.25,3.47,3.47,0,0,0,0,.79,6.9,6.9,0,0,0,.78,2.26c.26.48.54.94.84,1.39.19.28.4.54.61.8a15.27,15.27,0,0,0,1.3,1.37,10.7,10.7,0,0,0,1.71,1.35A10.58,10.58,0,0,0,9,29c.25.06.51.08.76.12A5.12,5.12,0,0,0,11.69,29a2.63,2.63,0,0,0,.54-.18A6.09,6.09,0,0,0,14,27.59a3.72,3.72,0,0,0,.57-.75l0-.1A2.87,2.87,0,0,0,15,25.29a3.74,3.74,0,0,0-.16-1.37,3.29,3.29,0,0,0-.52-1A6.64,6.64,0,0,0,13,21.55c-.58-.44-1.19-.83-1.8-1.24s-1.05-.68-1.55-1.07L9,18.75a6,6,0,0,1-.68-.65,9.15,9.15,0,0,1-1.19-1.64l-.73-1.28a6.7,6.7,0,0,0-.6-.83,2.52,2.52,0,0,0-.65-.52,1,1,0,0,0-.65-.13,1.94,1.94,0,0,0-.61.18.86.86,0,0,0-.39.43,1.25,1.25,0,0,0-.1.51,4.4,4.4,0,0,0,0,.81l.06.48a.62.62,0,0,1,0,.15l-.11-.05c-.13-.07-.26-.16-.4-.22a1.41,1.41,0,0,0-1,0,.55.55,0,0,0-.34.37,1.08,1.08,0,0,0,0,.44,3.2,3.2,0,0,0,.14.75c.14.38.29.76.43,1.15A1.34,1.34,0,0,1,2.32,19Z"/><path class="cls-3" d="M12.4,28.69l-.2,0a5.43,5.43,0,0,1-1.14-.19l-.9-.21a10.49,10.49,0,0,1-3-1.23,14.39,14.39,0,0,1-1.38-.92,7.94,7.94,0,0,1-.94-.78l-.25-.22c-.24-.27-.48-.53-.7-.81s-.46-.58-.68-.89-.32-.46-.47-.71-.3-.48-.44-.73-.17-.32-.25-.49-.14-.3-.22-.45a9.93,9.93,0,0,1-.6-1.38c-.07-.23-.12-.47-.18-.7,0-.05,0-.1,0-.16H.9a.63.63,0,0,0-.43.38,1.08,1.08,0,0,0-.1.35,3.64,3.64,0,0,0,0,.66,5.45,5.45,0,0,0,.37,1.48,10.86,10.86,0,0,0,.89,1.73,11.2,11.2,0,0,0,.78,1.16c.14.17.27.34.42.5.38.4.75.8,1.15,1.17a11.84,11.84,0,0,0,3.57,2.31,8,8,0,0,0,2.54.61,4.81,4.81,0,0,0,1.26-.09,3.48,3.48,0,0,0,.78-.22A.83.83,0,0,0,12.4,28.69Z"/><path class="cls-3" d="M2.93,16l-.17-.05A1.47,1.47,0,0,0,2,16a.54.54,0,0,0-.32.37,1,1,0,0,0,0,.45,3,3,0,0,0,.14.73l.48,1.29a.66.66,0,0,0,.15.22l.78.73a.1.1,0,0,0,0,0h.06a.08.08,0,0,0,0,0c0-.06,0-.13-.09-.17a.58.58,0,0,1-.14-.24,3.6,3.6,0,0,1-.24-.91c0-.3-.07-.59-.1-.89a2.82,2.82,0,0,1,.05-1c0-.15.07-.31.1-.47A.9.9,0,0,0,2.93,16Z"/><path class="cls-3" d="M4.4,13.76l0,0a1,1,0,0,0-.87.6,1.64,1.64,0,0,0-.1.49,6.36,6.36,0,0,0,.06.87c0,.16,0,.32.07.48l.3.35.63.7s.09.12.16.09,0-.13,0-.2c-.07-.31-.15-.62-.22-.93a5.71,5.71,0,0,1,0-2.18A.53.53,0,0,0,4.4,13.76Z"/><path class="cls-1" d="M37.74,11.62a13.33,13.33,0,0,0-5.35-5.48,16.07,16.07,0,0,0-7.95-1.92H15c-2.1,0-3.81,2-3.81,4.47v3q.07.42.18.84a.44.44,0,0,0,.06.16,9.27,9.27,0,0,0,.66,1.15,11.87,11.87,0,0,0,.81,1.06c.27.31.53.62.82.9l.51.5c0-.16,0-.31,0-.47A6.58,6.58,0,0,1,14.32,14,6.49,6.49,0,0,1,15,12.33a5.78,5.78,0,0,1,.67-1,7.57,7.57,0,0,1,.86-.84,6.68,6.68,0,0,1,1.85-1.06,7.53,7.53,0,0,1,1.21-.34h.12A7,7,0,0,1,21.19,9,7.82,7.82,0,0,1,24,9.63a8.53,8.53,0,0,1,2.71,1.81,8,8,0,0,1,.86,1,7.54,7.54,0,0,1,.85,1.45A6.72,6.72,0,0,1,29,17.06a6.48,6.48,0,0,1-.67,2.55l-.12.24h0a1.92,1.92,0,0,1,.28.29,2.71,2.71,0,0,0,.73.62,3.82,3.82,0,0,0,.87.4l.35.13a3.48,3.48,0,0,1,.36.22.37.37,0,0,1,.17.25.13.13,0,0,1,0,.06.83.83,0,0,1,0,.56s0,0,0,0a1.35,1.35,0,0,1-.2.27h0a1.24,1.24,0,0,1-.21.18,2.79,2.79,0,0,1-.58.33,4.53,4.53,0,0,1-1.63.39,8.36,8.36,0,0,1-2.23-.11l-.52-.09-.14,0h0v.07a.48.48,0,0,1,.09.11,1.73,1.73,0,0,1,.21.83.11.11,0,0,1,0,.06,1.46,1.46,0,0,1-.17.68.52.52,0,0,1-.21.26.48.48,0,0,1-.27,0,1.46,1.46,0,0,1-.5-.16,4,4,0,0,1-.9-.62,6.27,6.27,0,0,1-.82-.89,3.9,3.9,0,0,1-.36-.54h0a.22.22,0,0,1-.12,0c-.23,0-.45,0-.68,0a7.64,7.64,0,0,1-1-.13h0v0h0v0h0v.27l0,.06v.23a.29.29,0,0,1,0,.09v.26c0,.05,0,.09,0,.14v.21a1,1,0,0,1,0,.18v.35c0,.07,0,.14,0,.22v.06a.49.49,0,0,1,0,.12v.05a1.93,1.93,0,0,1,0,.24v0s0,.09,0,.13v.06c0,.14,0,.29,0,.43v.25c0,.09,0,.18,0,.27v.05A.76.76,0,0,0,21,27v.06l0,.32h0c0,.05,0,.1,0,.15v.06c0,.16,0,.32-.08.48v.06l0,.15v.06a2.29,2.29,0,0,1-.07.28v.06a.74.74,0,0,1,0,.14l0,.07a3.68,3.68,0,0,1-.15.47l0,.07-.06.15,0,.05a2,2,0,0,1-.11.26l0,.07-.06.14,0,.07-.12.25,0,.06-.07.13a.56.56,0,0,0-.05.08.83.83,0,0,1-.08.12.43.43,0,0,1,0,.07l-.15.22-.06.08-.09.11-.06.09-.16.18-.07.08-.1.11a.6.6,0,0,0-.08.08l-.1.1v0a.34.34,0,0,1-.06.06l0,0a6.54,6.54,0,0,1-1.52,1l0,0-.31.14-.07,0-.31.12-.08,0-.33.1-.07,0-.41.11h0l-.46.1h0l-.42.07-.14,0-.34,0-.18,0-.33,0h-1.3l-.58,0h0A3.69,3.69,0,0,0,15,35.78h9.48a16.07,16.07,0,0,0,8-1.92,13.33,13.33,0,0,0,5.35-5.48A17.48,17.48,0,0,0,39.65,20,17.48,17.48,0,0,0,37.74,11.62Z"/></svg>