<svg width="22" height="24" viewBox="0 0 22 24" fill="none" xmlns="http://www.w3.org/2000/svg">
<path opacity="0.24" d="M1.03217 5.51195L10.0322 0.535186C10.6344 0.202158 11.3656 0.202158 11.9678 0.535185L20.9483 5.50116C21.5955 5.85905 21.9924 6.54486 21.9802 7.28431L21.8211 16.9484C21.8093 17.6679 21.4119 18.3256 20.7804 18.6706L11.975 23.482C11.3834 23.8053 10.6687 23.8087 10.074 23.4912L1.05801 18.6773C0.406736 18.3296 0 17.6513 0 16.913V7.26218C0 6.53443 0.395304 5.86412 1.03217 5.51195Z" fill="url(#paint0_radial_3_48)"/>
<path d="M5.98195 7.96755L9.98195 5.60205C10.6099 5.23072 11.3901 5.23072 12.0181 5.60205L16.0004 7.95712C16.6185 8.32263 16.9932 8.99143 16.9821 9.7094L16.9093 14.4384C16.8986 15.1381 16.5228 15.7813 15.9186 16.1344L12.0122 18.4171C11.395 18.7778 10.6322 18.7816 10.0114 18.4271L6.00828 16.1413C5.38482 15.7853 5 15.1224 5 14.4045V9.68905C5 8.98199 5.37334 8.32747 5.98195 7.96755Z" fill="url(#paint1_radial_3_48)"/>
<defs>
<radialGradient id="paint0_radial_3_48" cx="0" cy="0" r="1" gradientUnits="userSpaceOnUse" gradientTransform="translate(11) rotate(90) scale(24 22)">
<stop offset="0.144704" stop-color="#FFFB9D"/>
<stop offset="0.500728" stop-color="#FFD912"/>
<stop offset="1" stop-color="#EBA900"/>
</radialGradient>
<radialGradient id="paint1_radial_3_48" cx="0" cy="0" r="1" gradientUnits="userSpaceOnUse" gradientTransform="translate(11 5) rotate(90) scale(14 12)">
<stop offset="0.144704" stop-color="#FFFB9D"/>
<stop offset="0.500728" stop-color="#FFD912"/>
<stop offset="1" stop-color="#EBA900"/>
</radialGradient>
</defs>
</svg>
