<svg width="30" height="30" viewBox="0 0 30 30" fill="none" xmlns="http://www.w3.org/2000/svg">
<rect x="0.5" y="0.5" width="29" height="29" rx="7.5" fill="url(#paint0_linear_346_460)" stroke="#2B2B2B"/>
<path d="M20.0887 12.3312C20.0973 12.4479 20.0973 12.5639 20.0973 12.6799C20.0973 16.2299 17.3953 20.3205 12.4573 20.3205C10.936 20.3205 9.52267 19.8799 8.33334 19.1145C8.54934 19.1392 8.75734 19.1479 8.982 19.1479C10.1907 19.1508 11.3651 18.7466 12.316 18.0005C11.7556 17.9904 11.2124 17.8055 10.7622 17.4717C10.3119 17.1379 9.97719 16.6718 9.80467 16.1385C9.97067 16.1632 10.1373 16.1799 10.312 16.1799C10.5527 16.1799 10.7947 16.1465 11.0193 16.0885C10.4112 15.9657 9.86432 15.6361 9.47175 15.1557C9.07918 14.6752 8.86513 14.0736 8.866 13.4532V13.4199C9.224 13.6192 9.63934 13.7439 10.0793 13.7605C9.71073 13.5156 9.40848 13.1832 9.19956 12.7931C8.99064 12.4029 8.88154 11.9671 8.882 11.5245C8.882 11.0259 9.01467 10.5685 9.24734 10.1699C9.92209 10.9999 10.7637 11.6789 11.7176 12.163C12.6714 12.647 13.7164 12.9253 14.7847 12.9799C14.7433 12.7799 14.718 12.5725 14.718 12.3645C14.7178 12.0118 14.7872 11.6626 14.9221 11.3367C15.0569 11.0108 15.2547 10.7147 15.5041 10.4653C15.7535 10.2159 16.0496 10.0181 16.3755 9.88325C16.7014 9.74836 17.0506 9.67902 17.4033 9.6792C18.1767 9.6792 18.8747 10.0032 19.3653 10.5272C19.9665 10.4109 20.543 10.1915 21.0693 9.87853C20.8689 10.4991 20.4492 11.0253 19.8887 11.3585C20.4219 11.2977 20.943 11.1575 21.4347 10.9425C21.0674 11.4779 20.6124 11.9474 20.0887 12.3312Z" fill="white"/>
<defs>
<linearGradient id="paint0_linear_346_460" x1="15" y1="78" x2="15" y2="-51.0811" gradientUnits="userSpaceOnUse">
<stop stop-color="#111111"/>
<stop offset="1" stop-color="#0A0A0C"/>
</linearGradient>
</defs>
</svg>
