<svg width="138" height="22" viewBox="0 0 138 22" fill="none" xmlns="http://www.w3.org/2000/svg">
<path d="M35.5501 5.88569V16.7345C35.5501 16.894 35.4213 17.0234 35.2624 17.0234H31.3652C31.2063 17.0234 31.0775 16.8941 31.0775 16.7345V16.5798C31.0775 16.3421 30.8061 16.2042 30.618 16.3486C30.3152 16.5811 29.9829 16.7678 29.6213 16.9084C29.0665 17.1242 28.4772 17.2322 27.8531 17.2322C26.4106 17.2322 25.2528 16.7903 24.3791 15.9057C23.5054 15.0215 23.0686 13.6882 23.0686 11.9054V5.88558C23.0686 5.72609 23.1974 5.59669 23.3563 5.59669H27.4823C27.6411 5.59669 27.77 5.72599 27.77 5.88558V11.0907C27.77 11.8709 27.8948 12.4277 28.1445 12.7618C28.3941 13.096 28.7614 13.2632 29.247 13.2632C29.7046 13.2632 30.0859 13.0788 30.3911 12.7096C30.696 12.3408 30.8488 11.7592 30.8488 10.9654V5.88558C30.8488 5.72609 30.9775 5.59669 31.1365 5.59669H35.2626C35.4213 5.5969 35.5501 5.7262 35.5501 5.88569Z" fill="#FBD107"/>
<path d="M40.2827 16.4803C39.2634 15.9789 38.4657 15.2759 37.8904 14.3704C37.3148 13.4654 37.0271 12.4417 37.0271 11.2996C37.0271 10.1579 37.3148 9.13749 37.8904 8.23926C38.4657 7.34104 39.2633 6.64131 40.2827 6.13987C41.302 5.63854 42.4565 5.38792 43.7463 5.38792C45.1329 5.38792 46.3187 5.68751 47.3035 6.28615C48.2082 6.83656 48.8554 7.58085 49.245 8.51903C49.3033 8.65943 49.2414 8.82165 49.1054 8.88876L45.9609 10.4406C45.8227 10.5088 45.6536 10.4564 45.5817 10.3197C45.1422 9.48289 44.5236 9.0644 43.7255 9.0644C43.1707 9.0644 42.7093 9.25965 42.3422 9.64931C41.9746 10.0395 41.7909 10.5894 41.7909 11.2996C41.7909 12.0238 41.9746 12.5811 42.3422 12.9707C42.7094 13.3608 43.1707 13.5556 43.7255 13.5556C44.5237 13.5556 45.1423 13.1372 45.5817 12.3005C45.6535 12.1636 45.8227 12.1113 45.9609 12.1796L49.1054 13.7313C49.2414 13.7984 49.3033 13.9605 49.245 14.101C48.8554 15.0395 48.2082 15.7839 47.3035 16.3341C46.3187 16.9329 45.133 17.2323 43.7463 17.2323C42.4565 17.2323 41.302 16.9817 40.2827 16.4803Z" fill="#FBD107"/>
<path d="M55.6457 13.7622L55.2012 14.2457C55.1521 14.2991 55.1249 14.369 55.1249 14.4416V16.7346C55.1249 16.894 54.9961 17.0234 54.8372 17.0234H50.7113C50.5524 17.0234 50.4236 16.8941 50.4236 16.7346V1.81222C50.4236 1.65273 50.5523 1.52333 50.7113 1.52333H54.8373C54.9961 1.52333 55.125 1.65262 55.125 1.81222V8.21472C55.125 8.47289 55.4366 8.60145 55.6173 8.41763L58.3066 5.68268C58.3607 5.62774 58.4343 5.5968 58.5113 5.5968H63.2735C63.5265 5.5968 63.6562 5.90111 63.4817 6.08503L59.416 10.3664C59.3172 10.4705 59.3096 10.6315 59.3982 10.7445L63.9533 16.556C64.1017 16.7455 63.9674 17.0234 63.7272 17.0234H58.7798C58.6918 17.0234 58.6088 16.9831 58.5542 16.9139L56.0826 13.7788C55.973 13.6397 55.7655 13.6319 55.6457 13.7622Z" fill="#FBD107"/>
<path d="M78.5091 5.5969C78.7129 5.5969 78.8521 5.8039 78.7759 5.9938L74.2547 17.2533C73.6582 18.7432 72.9162 19.7877 72.0288 20.3867C71.1412 20.9853 70.0527 21.2849 68.7628 21.2849C68.1247 21.2849 67.4834 21.191 66.8385 21.0028C66.2997 20.8458 65.8554 20.6473 65.5054 20.4076C65.3894 20.3282 65.3521 20.1732 65.4132 20.0463L66.7251 17.3235C66.7989 17.1705 66.9871 17.1147 67.1321 17.2024C67.2985 17.3034 67.4781 17.3899 67.6708 17.462C67.9689 17.5732 68.2565 17.6291 68.5341 17.6291C68.9524 17.6291 69.2878 17.5271 69.5403 17.3234C69.6395 17.2434 69.6728 17.1061 69.624 16.988L65.0797 5.99631C65.001 5.8061 65.1402 5.59669 65.3453 5.59669H69.5433C69.6622 5.59669 69.7688 5.6702 69.8116 5.78156L71.8253 11.0246C71.9197 11.2704 72.2657 11.2715 72.3614 11.0262L74.412 5.77988C74.4552 5.66926 74.5614 5.59659 74.6797 5.59659H78.5091V5.5969Z" fill="#FBD107"/>
<path d="M84.3107 2.68958C84.3107 2.53009 84.4394 2.4007 84.5984 2.4007H91.4875C93.1101 2.4007 94.542 2.69682 95.7832 3.28854C97.0243 3.88058 97.9883 4.72669 98.6748 5.82666C99.3612 6.92695 99.7046 8.22207 99.7046 9.71212C99.7046 11.2025 99.3614 12.4976 98.6748 13.5976C97.9883 14.6979 97.0243 15.5439 95.7832 16.1356C94.542 16.7277 93.1101 17.0234 91.4875 17.0234H84.5984C84.4395 17.0234 84.3107 16.8942 84.3107 16.7346V2.68958ZM91.2795 13.1798C92.3333 13.1798 93.1758 12.8769 93.807 12.2711C94.438 11.6653 94.7536 10.8125 94.7536 9.71223C94.7536 8.61225 94.438 7.75901 93.807 7.15324C93.1759 6.54747 92.3333 6.24453 91.2795 6.24453H89.5077C89.3488 6.24453 89.22 6.37382 89.22 6.53341V12.8911C89.22 13.0506 89.3487 13.18 89.5077 13.18H91.2795V13.1798Z" fill="white"/>
<path d="M109.502 5.68258V9.23742C109.502 9.40834 109.355 9.5435 109.186 9.52484C108.93 9.49663 108.689 9.48237 108.462 9.48237C106.853 9.48237 106.049 10.3043 106.049 11.9473V16.7347C106.049 16.8941 105.92 17.0235 105.761 17.0235H101.635C101.477 17.0235 101.348 16.8943 101.348 16.7347V5.88569C101.348 5.7262 101.476 5.5968 101.635 5.5968H105.532C105.691 5.5968 105.82 5.7261 105.82 5.88569V6.14857C105.82 6.39374 106.103 6.52471 106.292 6.36983C107.033 5.76447 108.004 5.43899 109.205 5.39348C109.367 5.3874 109.502 5.51942 109.502 5.68258Z" fill="white"/>
<path d="M113.34 16.4699C112.335 15.9616 111.548 15.2582 110.979 14.36C110.41 13.4618 110.126 12.4418 110.126 11.2997C110.126 10.158 110.41 9.13759 110.979 8.23937C111.548 7.34114 112.335 6.64142 113.34 6.13998C114.346 5.63864 115.48 5.38803 116.742 5.38803C118.017 5.38803 119.158 5.63864 120.164 6.13998C121.169 6.64142 121.953 7.34114 122.514 8.23937C123.076 9.13759 123.357 10.158 123.357 11.2997C123.357 12.4418 123.076 13.4618 122.514 14.36C121.953 15.2582 121.169 15.9616 120.164 16.4699C119.158 16.9784 118.017 17.2323 116.742 17.2323C115.48 17.2323 114.346 16.9784 113.34 16.4699ZM118.073 12.9605C118.419 12.5636 118.593 12.01 118.593 11.2997C118.593 10.5895 118.419 10.0395 118.073 9.64941C117.726 9.25976 117.282 9.06451 116.742 9.06451C116.201 9.06451 115.757 9.25976 115.41 9.64941C115.063 10.0396 114.89 10.5895 114.89 11.2997C114.89 12.01 115.064 12.5635 115.41 12.9605C115.757 13.3573 116.201 13.5557 116.742 13.5557C117.282 13.5557 117.726 13.3573 118.073 12.9605Z" fill="white"/>
<path d="M135.183 6.10873C136.022 6.5892 136.687 7.28211 137.18 8.18715C137.672 9.09261 137.918 10.1371 137.918 11.3207C137.918 12.5045 137.672 13.5454 137.18 14.4437C136.687 15.3419 136.022 16.0313 135.183 16.5117C134.344 16.9922 133.425 17.2323 132.427 17.2323C131.425 17.2323 130.611 17.0262 129.984 16.6135C129.791 16.4862 129.535 16.6202 129.535 16.8522V20.7873C129.535 20.9468 129.406 21.0762 129.247 21.0762H125.121C124.962 21.0762 124.833 20.9469 124.833 20.7873V5.88569C124.833 5.7262 124.962 5.59681 125.121 5.59681H129.018C129.177 5.59681 129.306 5.7261 129.306 5.88569C129.306 6.12467 129.576 6.25679 129.768 6.11544C130.426 5.63057 131.312 5.38803 132.426 5.38803C133.425 5.38803 134.344 5.62816 135.183 6.10873ZM132.634 12.9708C132.981 12.5812 133.154 12.0308 133.154 11.3206C133.154 10.6103 132.981 10.0567 132.634 9.65979C132.288 9.2629 131.844 9.0644 131.303 9.0644C130.762 9.0644 130.318 9.2629 129.972 9.65979C129.625 10.0567 129.452 10.6103 129.452 11.3206C129.452 12.0308 129.625 12.5811 129.972 12.9708C130.318 13.3609 130.762 13.5557 131.303 13.5557C131.844 13.5557 132.288 13.3609 132.634 12.9708Z" fill="white"/>
<path d="M13.6938 7.80052C13.6829 7.70132 13.6437 7.60423 13.575 7.52212C13.3899 7.30087 13.0611 7.27234 12.8409 7.45826C12.6207 7.64418 12.5922 7.97427 12.7773 8.19542C12.887 8.32639 13.0469 8.3892 13.2048 8.3806C13.0751 8.21671 13.098 7.97815 13.2585 7.84268C13.3844 7.73645 13.558 7.72502 13.6938 7.80052Z" fill="#FBD107"/>
<path d="M1.14209 8.74972C1.11807 8.74059 1.10418 8.73661 1.09155 8.73021C1.03172 8.70001 0.97303 8.66751 0.912569 8.63878C0.73902 8.55615 0.562129 8.56097 0.382523 8.61896C0.24291 8.66415 0.157597 8.76073 0.114158 8.89705C0.0998517 8.94193 0.0907669 8.98953 0.087321 9.03651C0.0768787 9.17891 0.0802203 9.32057 0.100374 9.46287C0.162401 9.90044 0.321018 10.3037 0.524432 10.6913C0.660494 10.9507 0.811907 11.2012 0.976476 11.4435C1.0786 11.5938 1.18981 11.7373 1.30468 11.8785C1.51968 12.1433 1.75943 12.3841 2.00493 12.6185C2.29084 12.8915 2.59878 13.1391 2.93042 13.3551C3.49754 13.7245 4.10497 14.0026 4.76502 14.1565C4.89899 14.1877 5.03704 14.2021 5.17373 14.2204C5.5226 14.2674 5.86646 14.2305 6.20584 14.1466C6.30493 14.1222 6.40413 14.0905 6.49634 14.0473C6.84918 13.8823 7.16986 13.6692 7.4447 13.3891C7.56479 13.2667 7.66608 13.1318 7.74888 12.9822C7.75849 12.9649 7.76653 12.9466 7.77729 12.93C7.93246 12.69 7.98968 12.4215 8.00681 12.141C8.02216 11.8893 7.99313 11.6434 7.91815 11.4022C7.85623 11.2032 7.75839 11.0238 7.63694 10.8562C7.42872 10.5688 7.17435 10.3287 6.89304 10.1148C6.57841 9.87549 6.24646 9.66199 5.917 9.44452C5.63371 9.25745 5.34926 9.07195 5.08204 8.86192C4.97355 8.77667 4.87226 8.68208 4.76408 8.59631C4.63031 8.4903 4.51159 8.36887 4.39589 8.24461C4.14444 7.97439 3.93361 7.67417 3.75358 7.35163C3.62441 7.12031 3.49222 6.89056 3.3596 6.66123C3.26625 6.49985 3.15201 6.35305 3.03255 6.21086C2.93502 6.09478 2.81462 6.00523 2.68441 5.92879C2.57476 5.86441 2.45666 5.84092 2.33146 5.85707C2.21743 5.87175 2.10758 5.90216 2.00483 5.95626C1.90636 6.00806 1.8365 6.08535 1.79327 6.18748C1.75578 6.27608 1.73792 6.36867 1.73521 6.46473C1.73093 6.61153 1.73928 6.7576 1.75849 6.90314C1.76998 6.98944 1.78251 7.07574 1.79368 7.16204C1.79661 7.1848 1.79588 7.20807 1.79723 7.24394C1.7705 7.23219 1.75348 7.22601 1.73771 7.21751C1.66483 7.1784 1.59497 7.13258 1.51926 7.10049C1.34289 7.02583 1.16454 7.04198 0.988172 7.10542C0.89179 7.14002 0.832478 7.21007 0.802613 7.30664C0.778909 7.38319 0.771286 7.46173 0.778909 7.54153C0.792275 7.67984 0.812429 7.81741 0.858792 7.94859C0.932619 8.15747 1.01177 8.36446 1.08779 8.5725C1.10753 8.62661 1.13708 8.6782 1.14209 8.74972Z" fill="#FECF0A"/>
<path d="M6.58876 13.9865C6.53311 13.9778 6.5069 13.9715 6.48058 13.97C6.27132 13.9579 6.06592 13.9265 5.86324 13.8699C5.70399 13.8253 5.54068 13.7956 5.37955 13.7575C4.80648 13.6223 4.27487 13.3864 3.7702 13.086C3.51248 12.9326 3.25717 12.7748 3.02076 12.5892C2.84711 12.4528 2.66646 12.3248 2.51358 12.1631C2.47307 12.1203 2.42127 12.0881 2.38201 12.0444C2.25284 11.9006 2.12294 11.7571 2.00108 11.6071C1.8741 11.4509 1.75307 11.2896 1.63529 11.1264C1.54517 11.0015 1.46174 10.8716 1.37966 10.7411C1.29769 10.6107 1.21875 10.478 1.14294 10.3438C1.09438 10.2579 1.05355 10.1676 1.0098 10.0791C0.969596 9.99766 0.931168 9.91524 0.89013 9.83418C0.766703 9.59049 0.653927 9.34176 0.566421 9.08297C0.524757 8.95965 0.500217 8.83057 0.467638 8.70411C0.46085 8.67758 0.452914 8.65136 0.443621 8.61844C0.418768 8.62001 0.395377 8.61718 0.374806 8.62347C0.267356 8.6564 0.184967 8.72225 0.142049 8.82711C0.116884 8.88866 0.0941198 8.95483 0.0894208 9.02026C0.081067 9.13823 0.0773077 9.25829 0.0893162 9.37563C0.11751 9.65256 0.188517 9.92006 0.289076 10.1798C0.41668 10.5095 0.584799 10.8181 0.767747 11.1192C0.899215 11.3357 1.03757 11.5473 1.194 11.7464C1.2672 11.8395 1.33935 11.9343 1.4207 12.0201C1.62464 12.2349 1.82586 12.4534 2.04191 12.6556C2.60902 13.1868 3.24777 13.6108 3.96829 13.9043C4.40895 14.0838 4.86339 14.2108 5.34123 14.2387C5.57086 14.2521 5.79797 14.2304 6.02363 14.1888C6.16732 14.1623 6.30891 14.1276 6.44466 14.0722C6.488 14.0544 6.53144 14.0376 6.58876 13.9865Z" fill="#F2B91B"/>
<path d="M1.4738 7.08833C1.43892 7.07753 1.41021 7.06494 1.38024 7.05991C1.24031 7.03652 1.1055 7.05939 0.974246 7.1094C0.881832 7.14464 0.830456 7.21688 0.801635 7.30769C0.776052 7.38801 0.771144 7.47075 0.779498 7.55443C0.792968 7.68875 0.812913 7.82234 0.858233 7.94954C0.941875 8.18421 1.02896 8.41773 1.11845 8.65031C1.13495 8.69309 1.16356 8.73493 1.19646 8.76702C1.33492 8.90208 1.47704 9.03347 1.61811 9.1658C1.62657 9.17377 1.6367 9.18195 1.64746 9.18488C1.65717 9.18751 1.6698 9.18499 1.6792 9.18058C1.68411 9.17828 1.68902 9.16538 1.68693 9.16024C1.67387 9.12795 1.66636 9.08831 1.64286 9.06671C1.60255 9.0298 1.5824 8.98481 1.56392 8.93689C1.50241 8.77751 1.45866 8.61319 1.43631 8.44384C1.41501 8.28299 1.39528 8.12182 1.37951 7.96034C1.36249 7.78637 1.3628 7.61283 1.40822 7.44149C1.43057 7.35739 1.44655 7.27162 1.46367 7.18626C1.46952 7.15607 1.47015 7.12492 1.4738 7.08833Z" fill="#F2B91B"/>
<path d="M2.26918 5.88758C2.26229 5.88391 2.25863 5.88003 2.2554 5.88034C2.04133 5.90362 1.87238 5.99359 1.78623 6.20373C1.75135 6.28888 1.73663 6.37822 1.73412 6.47007C1.72974 6.62883 1.74039 6.78643 1.76357 6.94341C1.7762 7.02939 1.79114 7.11506 1.80492 7.20084C1.85786 7.26428 1.90913 7.32919 1.96395 7.39095C2.07642 7.51804 2.19013 7.64397 2.30489 7.76907C2.32766 7.79392 2.3522 7.83618 2.39073 7.81762C2.44075 7.7935 2.40702 7.74799 2.39887 7.71276C2.35982 7.5432 2.31408 7.37511 2.2792 7.20472C2.19901 6.81338 2.18825 6.41995 2.25581 6.02505C2.26365 5.97944 2.28119 5.93351 2.26918 5.88758Z" fill="#F2B91B"/>
<path d="M20.2783 4.72532C19.5918 3.43775 18.6278 2.44745 17.3867 1.75433C16.1455 1.06163 14.7136 0.715073 13.091 0.715073H7.9736C6.83623 0.715073 5.91418 1.7989 5.91418 3.13586V4.74702C5.94301 4.90106 5.97559 5.05457 6.01025 5.20756C6.01683 5.23661 6.02769 5.26545 6.04127 5.29198C6.15091 5.50631 6.26567 5.71812 6.40079 5.91746C6.53581 6.11659 6.68231 6.30701 6.83905 6.48978C6.98253 6.65704 7.12569 6.8245 7.28264 6.97927C7.3739 7.06924 7.46485 7.15952 7.55622 7.24939C7.54651 7.16529 7.53931 7.08067 7.53544 6.99552C7.5203 6.66312 7.54933 6.33417 7.62566 6.00953C7.6996 5.69474 7.81561 5.39663 7.9712 5.11403C8.07458 4.92623 8.19487 4.74849 8.33563 4.58774C8.47827 4.42468 8.62885 4.26834 8.79833 4.13129C9.10199 3.88571 9.43541 3.69308 9.79911 3.55414C10.0128 3.47246 10.2304 3.41216 10.4513 3.37106C10.4564 3.37011 10.4617 3.36917 10.4668 3.36823C10.4837 3.36518 10.5005 3.36225 10.5174 3.35942C10.7858 3.31338 11.059 3.29587 11.3366 3.30646C11.8591 3.32639 12.3596 3.44404 12.8394 3.6483C13.3878 3.88183 13.8763 4.20773 14.3022 4.62801C14.4714 4.79494 14.6283 4.97174 14.7699 5.16247C14.9519 5.40753 15.1051 5.66947 15.2291 5.94861C15.4733 6.49849 15.5921 7.0728 15.5614 7.67627C15.5367 8.16418 15.4181 8.6264 15.2 9.06408C15.1787 9.10676 15.1565 9.1486 15.1336 9.18991C15.137 9.19264 15.1406 9.19526 15.1439 9.19809C15.1987 9.24643 15.2528 9.29802 15.2966 9.35622C15.4034 9.4981 15.544 9.59991 15.6904 9.69198C15.8373 9.78436 15.9968 9.85388 16.1625 9.90768C16.2259 9.92823 16.2899 9.94931 16.3492 9.97888C16.4174 10.0129 16.4829 10.0537 16.5456 10.0972C16.593 10.1299 16.6281 10.1759 16.6352 10.2365C16.6363 10.2451 16.6348 10.2542 16.6329 10.2647C16.6569 10.3683 16.6537 10.4706 16.6076 10.5699C16.6051 10.5787 16.6028 10.5862 16.5991 10.5926C16.5683 10.6452 16.5324 10.6931 16.4919 10.7369C16.4906 10.7384 16.4891 10.7398 16.4877 10.7414C16.4527 10.7786 16.4145 10.8128 16.3727 10.8438C16.2757 10.9155 16.1692 10.9702 16.0606 11.0216C15.7818 11.1533 15.4841 11.2081 15.1807 11.2323C14.7772 11.2642 14.3751 11.247 13.9763 11.1726C13.8814 11.1549 13.7863 11.1381 13.691 11.1218C13.6665 11.1176 13.6412 11.1154 13.615 11.1128C13.6106 11.113 13.6058 11.1131 13.601 11.1132C13.6015 11.1223 13.6021 11.1303 13.6025 11.1381C13.6048 11.1428 13.6069 11.1472 13.609 11.1517C13.6255 11.1693 13.6402 11.1893 13.6532 11.2121C13.7336 11.3524 13.7654 11.5038 13.7668 11.6633C13.7669 11.6746 13.7663 11.684 13.7653 11.6927C13.763 11.8221 13.7328 11.9458 13.6736 12.0637C13.6394 12.1315 13.6041 12.1759 13.5604 12.2006C13.5169 12.2273 13.467 12.2325 13.4137 12.2253C13.317 12.2122 13.2266 12.1792 13.1393 12.1371C12.9609 12.0509 12.8039 11.9327 12.6574 11.8012C12.4935 11.6541 12.3446 11.4928 12.21 11.3172C12.1391 11.2246 12.0753 11.1285 12.019 11.0279C12.0185 11.0279 12.0182 11.0279 12.0177 11.0279C11.9928 11.0283 11.9718 11.0242 11.9532 11.0161C11.8317 11.0175 11.7098 11.0143 11.5875 11.0052C11.4109 10.9921 11.2371 10.9682 11.0662 10.9339C11.0662 10.9339 11.0666 10.9355 11.0668 10.9366C11.067 10.9374 11.0674 10.939 11.0677 10.9403C11.0683 10.9425 11.069 10.9455 11.0698 10.9488C11.0701 10.9502 11.0704 10.9512 11.0708 10.9528C11.0719 10.9578 11.0734 10.9641 11.0749 10.9711C11.0756 10.9736 11.0762 10.9765 11.0768 10.9792C11.0781 10.9846 11.0793 10.9907 11.0808 10.997C11.0816 11.0007 11.0825 11.0044 11.0833 11.0085C11.0854 11.0181 11.0877 11.0285 11.0901 11.0401C11.0908 11.0436 11.0916 11.0477 11.0924 11.0514C11.0942 11.06 11.096 11.0691 11.0979 11.0786C11.0992 11.0849 11.1005 11.0914 11.1018 11.0981C11.1034 11.1063 11.1051 11.1151 11.1068 11.1238C11.1089 11.1347 11.1111 11.1461 11.1133 11.1579C11.1152 11.1687 11.1173 11.1797 11.1194 11.1913C11.121 11.2001 11.1227 11.2092 11.1242 11.2184C11.126 11.2282 11.1278 11.2383 11.1294 11.2486C11.1312 11.2587 11.1329 11.2686 11.1347 11.279C11.1375 11.2959 11.1404 11.3134 11.1432 11.3315C11.1452 11.3436 11.1471 11.3563 11.1491 11.3689C11.1506 11.3793 11.1523 11.3898 11.1539 11.4005C11.1559 11.4135 11.1579 11.4267 11.1597 11.4401C11.1612 11.4504 11.1627 11.4612 11.1642 11.4718C11.1677 11.4964 11.1711 11.5217 11.1745 11.5476C11.1758 11.5577 11.1772 11.5678 11.1784 11.5782C11.1804 11.5941 11.1824 11.6103 11.1844 11.6266C11.1856 11.6371 11.1869 11.6477 11.1881 11.6584C11.1918 11.6905 11.1954 11.7233 11.1989 11.757C11.1997 11.7648 11.2006 11.7725 11.2013 11.7804C11.2031 11.7984 11.2048 11.8169 11.2065 11.8353C11.2076 11.8464 11.2085 11.8575 11.2095 11.8688C11.2112 11.8879 11.2129 11.9072 11.2144 11.927C11.215 11.934 11.2155 11.9413 11.2161 11.9485C11.2191 11.9871 11.2219 12.0267 11.2244 12.0668C11.225 12.0773 11.2257 12.0877 11.2262 12.0983C11.2275 12.1196 11.2286 12.1411 11.2297 12.1627C11.2302 12.1727 11.2306 12.183 11.2311 12.1932C11.2329 12.2349 11.2345 12.2773 11.2357 12.3203C11.236 12.3287 11.2363 12.3369 11.2365 12.3452C11.2371 12.3683 11.2375 12.3915 11.2378 12.4149C11.238 12.4259 11.2382 12.437 11.2383 12.4481C11.2391 12.5244 11.2387 12.6024 11.237 12.6817C11.2368 12.6928 11.2365 12.704 11.2362 12.7151C11.2354 12.7402 11.2347 12.7656 11.2338 12.791C11.2335 12.7985 11.2331 12.8062 11.2328 12.8138C11.2307 12.8632 11.2281 12.9133 11.2248 12.9637C11.2242 12.9731 11.2236 12.9826 11.2229 12.9921C11.2211 13.0183 11.219 13.0445 11.217 13.071C11.2161 13.0816 11.2152 13.0922 11.2142 13.1027C11.2093 13.1598 11.2036 13.2171 11.1969 13.2749C11.1968 13.2758 11.1967 13.2766 11.1966 13.2774C11.1935 13.3044 11.19 13.3315 11.1865 13.3587C11.185 13.3701 11.1834 13.3815 11.1819 13.3929C11.1701 13.4788 11.1563 13.5652 11.1402 13.6519C11.1381 13.6634 11.1359 13.6749 11.1337 13.6864C11.1285 13.7133 11.1232 13.7403 11.1175 13.7672C11.1154 13.7778 11.1129 13.7885 11.1107 13.7991C11.0997 13.8501 11.0878 13.901 11.075 13.952C11.0726 13.9615 11.0704 13.971 11.0679 13.9805C11.0612 14.0072 11.0539 14.0337 11.0466 14.0603C11.0432 14.0729 11.0396 14.0855 11.036 14.0982C11.0119 14.1831 10.9851 14.2678 10.9557 14.352C10.9511 14.3653 10.9464 14.3785 10.9416 14.3917C10.9323 14.4174 10.9229 14.4431 10.9131 14.4686C10.909 14.4793 10.9046 14.49 10.9004 14.5007C10.8821 14.5474 10.8628 14.5938 10.8426 14.6401C10.8369 14.6533 10.8311 14.6664 10.8253 14.6795C10.8142 14.7039 10.8029 14.7283 10.7913 14.7526C10.7847 14.7663 10.778 14.7801 10.7713 14.7937C10.7498 14.8376 10.7272 14.8812 10.7038 14.9244C10.6975 14.9361 10.6913 14.948 10.6848 14.9597C10.672 14.9828 10.6586 15.0057 10.6452 15.0286C10.6368 15.0432 10.6281 15.0576 10.6193 15.072C10.6057 15.0947 10.592 15.1172 10.5777 15.1396C10.5694 15.1525 10.5608 15.1653 10.5523 15.1781C10.5268 15.2169 10.5005 15.2554 10.4733 15.2935C10.4626 15.3084 10.452 15.3232 10.441 15.3379C10.4255 15.3587 10.41 15.3795 10.394 15.3999C10.3821 15.4152 10.3699 15.4302 10.3577 15.4453C10.3311 15.4782 10.3039 15.5107 10.2758 15.5428C10.262 15.5587 10.2482 15.5745 10.234 15.5901C10.217 15.6089 10.1997 15.6273 10.1821 15.6458C10.1676 15.6611 10.1527 15.6762 10.1378 15.6913C10.1202 15.709 10.1028 15.7268 10.0847 15.7444C10.0834 15.741 10.0824 15.7384 10.0812 15.7347C10.066 15.7502 10.0555 15.7581 10.0488 15.7685C10.044 15.7758 10.0396 15.7833 10.0348 15.7907C9.80496 16.0032 9.53356 16.1922 9.21403 16.3488C9.20693 16.3522 9.19962 16.3556 9.19242 16.359C9.13801 16.3853 9.08204 16.4105 9.02482 16.4349C9.01218 16.4402 8.99944 16.4455 8.9866 16.4508C8.93303 16.4729 8.87821 16.494 8.82224 16.5145C8.80731 16.5199 8.79248 16.5254 8.77734 16.5307C8.72001 16.5508 8.66112 16.5698 8.60107 16.5882C8.5875 16.5923 8.57424 16.5967 8.56056 16.6007C8.48861 16.6219 8.41489 16.6419 8.33918 16.6603C8.33751 16.6607 8.33605 16.6611 8.33438 16.6616C8.25439 16.6809 8.17211 16.6986 8.08784 16.7147C8.08074 16.7161 8.07332 16.7171 8.06633 16.7184C7.99302 16.7321 7.91805 16.7445 7.8414 16.7557C7.81634 16.7594 7.79044 16.7623 7.76496 16.7657C7.70492 16.7737 7.64415 16.7811 7.58212 16.7875C7.55038 16.7908 7.51801 16.7936 7.48574 16.7964C7.42768 16.8016 7.36879 16.806 7.30885 16.8096C7.27366 16.8118 7.23826 16.8138 7.20244 16.8155C7.14229 16.8183 7.08089 16.8202 7.01897 16.8217C6.98284 16.8225 6.94692 16.8236 6.91016 16.8239C6.84281 16.8245 6.77368 16.8238 6.70424 16.8227C6.67156 16.8222 6.63961 16.8223 6.6065 16.8215C6.50334 16.8188 6.3985 16.8146 6.29084 16.8081V16.8082C6.66383 17.4279 7.27825 17.8325 7.97318 17.8325H13.0906C14.7132 17.8325 16.145 17.4864 17.3863 16.7933C18.6274 16.1007 19.5914 15.1103 20.2779 13.8224C20.9643 12.5348 21.3076 11.0188 21.3076 9.27422C21.308 7.52926 20.9648 6.0133 20.2783 4.72532Z" fill="#FBD107"/>
</svg>
