<svg width="206" height="32" viewBox="0 0 206 32" fill="none" xmlns="http://www.w3.org/2000/svg">
<path d="M46.2484 8.03531V24.8953C46.2484 25.0143 46.2011 25.1285 46.1169 25.2127C46.0327 25.2969 45.9185 25.3442 45.7994 25.3442H39.7177C39.5987 25.3442 39.4845 25.2969 39.4003 25.2127C39.3161 25.1285 39.2688 25.0143 39.2688 24.8953V24.6548C39.2692 24.5714 39.2463 24.4896 39.2027 24.4186C39.1592 24.3475 39.0966 24.29 39.0221 24.2526C38.9477 24.2152 38.8642 24.1993 38.7812 24.2067C38.6982 24.2141 38.6189 24.2446 38.5522 24.2946C38.0778 24.6573 37.5541 24.9505 36.997 25.1654C36.1166 25.5035 35.1809 25.6742 34.2379 25.6686C31.9858 25.6686 30.1769 24.9812 28.8112 23.6064C27.4454 22.2316 26.7638 20.1596 26.7663 17.3903V8.03531C26.7663 7.91624 26.8136 7.80205 26.8978 7.71786C26.982 7.63367 27.0961 7.58637 27.2152 7.58637H33.6533C33.7724 7.58637 33.8866 7.63367 33.9708 7.71786C34.055 7.80205 34.1023 7.91624 34.1023 8.03531V16.1237C34.1023 17.3365 34.2971 18.2023 34.6869 18.7211C35.0766 19.2399 35.6522 19.4998 36.4136 19.5006C36.7577 19.5043 37.098 19.4283 37.4079 19.2786C37.7177 19.1288 37.9887 18.9093 38.1995 18.6372C38.6755 18.0617 38.9136 17.1572 38.9136 15.9239V8.03038C38.9136 7.91131 38.9609 7.79712 39.0451 7.71293C39.1293 7.62874 39.2435 7.58144 39.3625 7.58144H45.8006C45.8599 7.5816 45.9186 7.59349 45.9732 7.61643C46.0279 7.63937 46.0774 7.67291 46.1191 7.7151C46.1607 7.7573 46.1935 7.80732 46.2157 7.86228C46.2379 7.91724 46.249 7.97604 46.2484 8.03531Z" fill="url(#paint0_radial_92_97)"/>
<path d="M53.6337 24.4994C52.1071 23.7773 50.8136 22.6416 49.9003 21.2211C49.0024 19.8134 48.5535 18.2228 48.5535 16.4493C48.5535 14.6757 49.0024 13.0904 49.9003 11.6934C50.818 10.2804 52.1106 9.15046 53.6337 8.42998C55.2247 7.65132 57.0267 7.26199 59.0395 7.26199C61.2028 7.26199 63.0528 7.72738 64.5896 8.65815C65.95 9.45413 67.0135 10.6723 67.6187 12.1276C67.6624 12.233 67.6642 12.3511 67.6239 12.4579C67.5836 12.5647 67.5041 12.6521 67.4016 12.7023L62.4954 15.1197C62.3916 15.1714 62.2719 15.1807 62.1614 15.1457C62.0509 15.1108 61.9584 15.0342 61.9033 14.9322C61.2176 13.6306 60.2523 12.9802 59.0074 12.9811C58.6039 12.9704 58.2027 13.0456 57.8304 13.2017C57.4581 13.3578 57.1231 13.5911 56.8478 13.8863C56.2722 14.4932 55.9845 15.3483 55.9845 16.4517C55.9845 17.5765 56.2722 18.442 56.8478 19.0479C57.1227 19.344 57.4574 19.5782 57.8298 19.7349C58.2021 19.8917 58.6036 19.9673 59.0074 19.9569C60.2515 19.9569 61.2168 19.3069 61.9033 18.007C61.9582 17.9048 62.0506 17.828 62.1611 17.7928C62.2716 17.7575 62.3915 17.7667 62.4954 17.8183L67.4029 20.2307C67.5052 20.2808 67.5847 20.3679 67.625 20.4745C67.6653 20.581 67.6635 20.699 67.6199 20.8042C67.0151 22.2601 65.9515 23.4787 64.5908 24.2749C63.0541 25.2057 61.204 25.6711 59.0407 25.6711C57.0271 25.6694 55.2247 25.2789 53.6337 24.4994Z" fill="url(#paint1_radial_92_97)"/>
<path d="M77.6089 20.2751L76.9158 21.0275C76.8378 21.1094 76.7937 21.2178 76.7924 21.3309V24.8953C76.7924 25.0143 76.7451 25.1285 76.6609 25.2127C76.5767 25.2969 76.4626 25.3442 76.3435 25.3442H69.9091C69.79 25.3442 69.6758 25.2969 69.5916 25.2127C69.5074 25.1285 69.4601 25.0143 69.4601 24.8953V1.70819C69.4601 1.58912 69.5074 1.47493 69.5916 1.39074C69.6758 1.30655 69.79 1.25925 69.9091 1.25925H76.3472C76.4663 1.25925 76.5804 1.30655 76.6646 1.39074C76.7488 1.47493 76.7961 1.58912 76.7961 1.70819V11.654C76.7961 11.743 76.8225 11.8301 76.8721 11.9041C76.9216 11.9781 76.9921 12.0357 77.0744 12.0695C77.1568 12.1034 77.2474 12.1119 77.3347 12.0942C77.4219 12.0764 77.5019 12.0331 77.5645 11.9697L81.7579 7.71956C81.7997 7.67727 81.8494 7.64372 81.9042 7.62085C81.9591 7.59798 82.0179 7.58625 82.0774 7.58636H89.5083C89.5962 7.58627 89.6822 7.61198 89.7556 7.66031C89.829 7.70863 89.8867 7.77744 89.9213 7.85821C89.956 7.93898 89.9662 8.02815 89.9507 8.11466C89.9351 8.20117 89.8945 8.28122 89.8339 8.34488L83.4933 14.9964C83.4187 15.0745 83.3748 15.1768 83.3696 15.2846C83.3644 15.3924 83.3982 15.4985 83.4649 15.5834L90.5727 24.6165C90.6248 24.6827 90.6572 24.7623 90.6662 24.846C90.6752 24.9298 90.6604 25.0144 90.6237 25.0901C90.5869 25.1659 90.5295 25.2298 90.4581 25.2745C90.3867 25.3192 90.3042 25.343 90.22 25.343H82.5004C82.4326 25.343 82.3656 25.3277 82.3046 25.2982C82.2435 25.2688 82.1898 25.2259 82.1477 25.1728L78.291 20.2998C78.2505 20.2492 78.1996 20.2079 78.1417 20.1788C78.0838 20.1496 78.0203 20.1333 77.9556 20.131C77.8908 20.1287 77.8263 20.1403 77.7665 20.1652C77.7067 20.1901 77.6529 20.2276 77.6089 20.2751Z" fill="url(#paint2_radial_92_97)"/>
<path d="M113.289 7.58637C113.362 7.58619 113.435 7.60412 113.499 7.63856C113.564 7.673 113.62 7.7229 113.661 7.78385C113.702 7.8448 113.727 7.91492 113.735 7.98803C113.743 8.06114 113.732 8.13498 113.704 8.20304L106.649 25.7007C105.718 28.0169 104.56 29.64 103.176 30.5699C101.793 31.4999 100.093 31.9653 98.0789 31.9661C97.0621 31.9632 96.051 31.8158 95.0757 31.5283C94.3381 31.3304 93.6361 31.0183 92.995 30.6033C92.9084 30.542 92.8464 30.4518 92.8202 30.349C92.7939 30.2462 92.8052 30.1374 92.8519 30.0421L94.8993 25.8104C94.9264 25.7542 94.9649 25.7043 95.0124 25.6639C95.0599 25.6234 95.1154 25.5933 95.1752 25.5756C95.235 25.5578 95.2978 25.5527 95.3597 25.5607C95.4216 25.5686 95.4811 25.5894 95.5345 25.6217C95.8013 25.7821 96.0825 25.9171 96.3744 26.025C96.8045 26.1921 97.2611 26.2803 97.7225 26.2853C98.3745 26.2853 98.8978 26.127 99.2925 25.8104C99.3674 25.749 99.4205 25.6651 99.4441 25.5712C99.4676 25.4772 99.4603 25.3782 99.4233 25.2887L92.3315 8.21291C92.3038 8.14494 92.2932 8.07121 92.3007 7.9982C92.3082 7.92519 92.3335 7.85514 92.3745 7.79423C92.4154 7.73331 92.4707 7.68339 92.5355 7.64887C92.6002 7.61434 92.6725 7.59626 92.7459 7.59623H99.2999C99.3907 7.59614 99.4793 7.62354 99.5542 7.67485C99.6291 7.72615 99.6866 7.79893 99.7193 7.88361L102.862 16.0312C102.895 16.1153 102.952 16.1875 103.027 16.2384C103.101 16.2893 103.19 16.3166 103.28 16.3166C103.37 16.3166 103.458 16.2893 103.533 16.2384C103.608 16.1875 103.665 16.1153 103.698 16.0312L106.899 7.87867C106.932 7.79466 106.989 7.72253 107.064 7.67171C107.138 7.62089 107.226 7.59372 107.317 7.59377L113.289 7.58637Z" fill="url(#paint3_radial_92_97)"/>
<path d="M122.343 3.06859C122.343 2.94952 122.39 2.83533 122.474 2.75114C122.558 2.66694 122.673 2.61964 122.792 2.61964H133.542C136.074 2.61964 138.309 3.07928 140.246 3.99854C142.183 4.9178 143.687 6.23338 144.758 7.94527C145.827 9.65471 146.361 11.6692 146.361 13.9887C146.361 16.3082 145.827 18.3227 144.758 20.0322C143.689 21.7416 142.185 23.0572 140.246 23.9789C138.307 24.9006 136.072 25.3607 133.542 25.359H122.792C122.673 25.359 122.558 25.3117 122.474 25.2275C122.39 25.1433 122.343 25.0292 122.343 24.9101V3.06859ZM133.217 19.3711C134.862 19.3711 136.177 18.9004 137.164 17.9589C138.151 17.0174 138.644 15.6916 138.644 13.9813C138.644 12.2719 138.151 10.9464 137.164 10.005C136.177 9.06352 134.862 8.59279 133.217 8.59279H130.452C130.333 8.59279 130.219 8.64009 130.135 8.72428C130.05 8.80847 130.003 8.92266 130.003 9.04173V18.9221C130.003 19.0412 130.05 19.1554 130.135 19.2396C130.219 19.3238 130.333 19.3711 130.452 19.3711H133.217Z" fill="white"/>
<path d="M161.655 7.71957V13.2438C161.655 13.3066 161.642 13.3687 161.617 13.4262C161.592 13.4837 161.554 13.5351 161.508 13.5773C161.461 13.6194 161.406 13.6512 161.347 13.6707C161.287 13.6902 161.224 13.6968 161.161 13.6902C160.786 13.6482 160.409 13.6264 160.032 13.6249C157.52 13.6249 156.265 14.9018 156.266 17.4557V24.8953C156.266 24.9542 156.255 25.0126 156.232 25.0671C156.209 25.1215 156.176 25.171 156.135 25.2127C156.093 25.2544 156.043 25.2875 155.989 25.31C155.935 25.3326 155.876 25.3442 155.817 25.3442H149.374C149.255 25.3442 149.141 25.2969 149.057 25.2127C148.973 25.1285 148.925 25.0143 148.925 24.8953V8.03531C148.925 7.91624 148.973 7.80205 149.057 7.71786C149.141 7.63366 149.255 7.58637 149.374 7.58637H155.456C155.575 7.58637 155.689 7.63366 155.773 7.71786C155.857 7.80205 155.905 7.91624 155.905 8.03531V8.44355C155.905 8.52926 155.929 8.61318 155.976 8.68543C156.022 8.75768 156.087 8.81526 156.165 8.8514C156.243 8.88754 156.329 8.90074 156.414 8.88945C156.499 8.87816 156.579 8.84284 156.645 8.78765C157.8 7.84702 159.315 7.34134 161.19 7.27063C161.25 7.26847 161.31 7.27849 161.366 7.30009C161.423 7.32168 161.474 7.35441 161.518 7.39631C161.561 7.43822 161.595 7.48844 161.619 7.54398C161.643 7.59952 161.655 7.65924 161.655 7.71957Z" fill="white"/>
<path d="M167.644 24.4833C166.138 23.7498 164.863 22.6155 163.96 21.2051C163.072 19.8073 162.628 18.222 162.629 16.4493C162.63 14.6765 163.073 13.0912 163.96 11.6934C164.861 10.2846 166.137 9.15454 167.644 8.42998C169.214 7.65132 170.981 7.26199 172.947 7.26199C174.938 7.26199 176.718 7.65132 178.288 8.42998C179.792 9.15226 181.063 10.2831 181.956 11.6934C182.832 13.0912 183.27 14.6765 183.27 16.4493C183.27 18.222 182.832 19.8073 181.956 21.2051C181.061 22.6172 179.791 23.7523 178.288 24.4833C176.717 25.2735 174.937 25.6686 172.947 25.6686C170.981 25.6686 169.214 25.2735 167.644 24.4833ZM175.028 19.0294C175.57 18.4128 175.84 17.5527 175.84 16.4493C175.839 15.3458 175.568 14.4915 175.028 13.8863C174.763 13.5998 174.442 13.3711 174.084 13.2147C173.727 13.0584 173.341 12.9776 172.95 12.9776C172.56 12.9776 172.174 13.0584 171.817 13.2147C171.459 13.3711 171.138 13.5998 170.873 13.8863C170.333 14.4932 170.062 15.3483 170.061 16.4517C170.06 17.5552 170.331 18.4152 170.873 19.0319C171.135 19.323 171.455 19.5558 171.813 19.7151C172.171 19.8744 172.559 19.9567 172.95 19.9567C173.342 19.9567 173.73 19.8744 174.087 19.7151C174.445 19.5558 174.766 19.323 175.028 19.0319V19.0294Z" fill="white"/>
<path d="M201.73 8.38188C203.054 9.14225 204.134 10.2623 204.847 11.612C205.616 13.0197 206 14.6428 206 16.4813C206 18.3199 205.616 19.9376 204.847 21.3346C204.13 22.6773 203.05 23.7911 201.73 24.5487C200.421 25.2952 198.937 25.6816 197.429 25.6686C195.867 25.6686 194.597 25.3479 193.618 24.7066C193.551 24.6611 193.472 24.6347 193.391 24.6304C193.31 24.626 193.229 24.6437 193.157 24.6817C193.085 24.7196 193.024 24.7764 192.982 24.8459C192.94 24.9155 192.917 24.9952 192.917 25.0766V31.1916C192.917 31.3106 192.869 31.4248 192.785 31.509C192.701 31.5932 192.587 31.6405 192.468 31.6405H186.029C185.91 31.6405 185.796 31.5932 185.712 31.509C185.628 31.4248 185.581 31.3106 185.581 31.1916V8.03531C185.581 7.91624 185.628 7.80205 185.712 7.71786C185.796 7.63367 185.91 7.58637 186.029 7.58637H192.111C192.23 7.58637 192.344 7.63367 192.429 7.71786C192.513 7.80205 192.56 7.91624 192.56 8.03531C192.56 8.11879 192.584 8.20055 192.628 8.27141C192.672 8.34227 192.735 8.39943 192.81 8.43645C192.885 8.47348 192.968 8.48891 193.052 8.48101C193.135 8.47312 193.214 8.4422 193.28 8.39175C194.307 7.63858 195.69 7.26199 197.429 7.26199C198.937 7.24831 200.421 7.63475 201.73 8.38188ZM197.754 19.0455C198.294 18.4403 198.565 17.5856 198.565 16.4813C198.566 15.3771 198.296 14.5166 197.754 13.8999C197.492 13.6088 197.171 13.3761 196.813 13.2167C196.455 13.0574 196.068 12.9751 195.676 12.9751C195.284 12.9751 194.897 13.0574 194.539 13.2167C194.181 13.3761 193.861 13.6088 193.599 13.8999C193.058 14.5166 192.788 15.3754 192.788 16.4764C192.788 17.5774 193.059 18.4321 193.6 19.0405C193.865 19.3271 194.186 19.5558 194.544 19.7122C194.901 19.8685 195.287 19.9493 195.677 19.9493C196.068 19.9493 196.454 19.8685 196.811 19.7122C197.169 19.5558 197.49 19.3271 197.755 19.0405L197.754 19.0455Z" fill="white"/>
<path d="M22.4162 6.23215C21.3958 4.28312 19.8247 2.67725 17.8985 1.61446C15.9621 0.538976 13.7277 0.000822237 11.1952 0H3.21412C1.43933 0 0 1.68476 0 3.76173V6.26545C0.0460453 6.50472 0.0962019 6.74358 0.15047 6.98203C0.161155 7.02739 0.177305 7.07129 0.198568 7.11276C0.3638 7.44945 0.549566 7.77567 0.754813 8.08958C0.965693 8.39891 1.19424 8.69582 1.43932 8.97883C1.66256 9.23907 1.8858 9.4993 2.13124 9.73981L2.55798 10.1592C2.54318 10.0284 2.53208 9.89768 2.52591 9.76448C2.50104 9.24981 2.54837 8.73419 2.66651 8.23265C2.78102 7.74623 2.96241 7.27803 3.20549 6.84142C3.36509 6.54883 3.55571 6.27427 3.77407 6.02248C3.9944 5.76598 4.23619 5.52873 4.49681 5.3133C4.96639 4.93217 5.49341 4.62786 6.05824 4.41171C6.3881 4.28617 6.72867 4.19081 7.07576 4.12681H7.10043L7.17936 4.11201C7.60126 4.04025 8.02953 4.01297 8.45712 4.03061C9.26406 4.06293 10.0583 4.24267 10.8005 4.56095C11.6524 4.91806 12.4288 5.43369 13.0884 6.08044C13.3523 6.33796 13.596 6.61546 13.8173 6.91049C14.1009 7.28995 14.3413 7.69991 14.5339 8.13275C14.9221 8.97262 15.1032 9.89341 15.0617 10.8178C15.0263 11.5678 14.8343 12.3022 14.4981 12.9737C14.4652 13.0403 14.4307 13.1056 14.3945 13.1698L14.4105 13.1821C14.4976 13.2565 14.5773 13.3391 14.6486 13.4288C14.8202 13.6396 15.0292 13.8169 15.2652 13.9517C15.4971 14.0934 15.7457 14.2057 16.0053 14.286C16.1053 14.3158 16.203 14.3529 16.2976 14.397C16.4038 14.4508 16.506 14.5122 16.6034 14.5807C16.6414 14.6044 16.6736 14.6361 16.6979 14.6736C16.7222 14.7111 16.738 14.7535 16.744 14.7978C16.7458 14.8121 16.7458 14.8266 16.744 14.841C16.7854 14.9991 16.7715 15.1667 16.7046 15.3158C16.7018 15.3279 16.6972 15.3396 16.691 15.3503C16.644 15.4314 16.5877 15.5067 16.5233 15.5748L16.5171 15.5822C16.4622 15.6404 16.4024 15.6936 16.3383 15.7413C16.183 15.8489 16.0178 15.9415 15.8449 16.0176C15.4107 16.2093 14.945 16.3201 14.471 16.3444C13.8431 16.3969 13.211 16.3658 12.5913 16.2519L12.1461 16.173C12.1079 16.173 12.0684 16.1631 12.0227 16.1594H12.0005V16.1989L12.0116 16.2199C12.0383 16.2483 12.0615 16.2797 12.0807 16.3136C12.2 16.5276 12.2608 16.7692 12.2571 17.0141C12.2584 17.0293 12.2584 17.0446 12.2571 17.0598C12.2538 17.2605 12.2049 17.4579 12.114 17.637C12.0775 17.7236 12.0161 17.7974 11.9377 17.8491C11.8681 17.8886 11.7868 17.9022 11.7082 17.8874C11.5592 17.8647 11.4148 17.8185 11.2803 17.7505C11.006 17.6131 10.7527 17.4375 10.5279 17.2287C10.2727 16.9998 10.039 16.748 9.82984 16.4764C9.72061 16.3337 9.6213 16.1837 9.53261 16.0275C9.49838 16.0283 9.46436 16.022 9.4327 16.009C9.24277 16.009 9.05283 16.009 8.86166 15.9917C8.58833 15.9711 8.3165 15.9341 8.04765 15.8807C8.20552 16.12 8.35598 16.3629 8.50152 16.6108C8.74771 17.0392 8.95413 17.4892 9.1182 17.9552C9.29589 18.4612 9.41466 18.9859 9.47217 19.5191L9.54617 20.1851C9.55357 20.2579 9.55974 20.3306 9.56591 20.4034C9.56591 20.4108 9.56591 20.417 9.56591 20.4231C9.57535 20.5409 9.57865 20.659 9.57577 20.7771C9.57577 20.9165 9.56714 21.0571 9.55727 21.1977C9.54827 21.4177 9.50969 21.6355 9.44257 21.8452C9.44257 21.8575 9.4327 21.8686 9.429 21.881L9.42284 21.8995C9.41667 21.9167 9.4105 21.9352 9.4031 21.9525C9.37666 22.0233 9.3392 22.0895 9.2921 22.1486C9.26127 22.2012 9.21209 22.2404 9.15402 22.2589C9.09595 22.2773 9.0331 22.2736 8.9776 22.2485C8.90561 22.2355 8.83764 22.2059 8.77903 22.1622C8.66904 22.0937 8.58289 21.9929 8.53235 21.8736C8.49412 21.7835 8.45835 21.6923 8.42135 21.601C8.41734 21.5909 8.41281 21.581 8.40778 21.5714C8.39915 21.5467 8.38928 21.5221 8.38065 21.4986C8.37718 21.4907 8.37115 21.4843 8.36354 21.4802C8.35593 21.4762 8.34718 21.4749 8.33872 21.4764C8.33231 21.4948 8.32777 21.5138 8.32515 21.5332C8.32515 21.622 8.31898 21.7095 8.31775 21.7983C8.31271 22.1719 8.26889 22.5439 8.18702 22.9083C8.18759 22.9161 8.18759 22.924 8.18702 22.9318C8.17345 22.9897 8.15865 23.0477 8.14385 23.1057C8.14329 23.1118 8.14329 23.118 8.14385 23.1242C8.11301 23.234 8.07971 23.3425 8.04148 23.4498C8.01434 23.5263 7.98598 23.6003 7.95391 23.6743V23.6866C7.95011 23.6938 7.94682 23.7012 7.94404 23.7088C7.93788 23.7236 7.93048 23.7372 7.92431 23.7507C7.90211 23.8013 7.87621 23.8506 7.84907 23.9V23.9061C7.83674 23.9296 7.82318 23.953 7.80961 23.9752L7.76644 24.043L7.74794 24.0702C7.72821 24.0985 7.70847 24.1269 7.6875 24.154L7.669 24.1762V24.1824C7.64213 24.2173 7.61152 24.2491 7.57774 24.2774C7.54119 24.3083 7.49942 24.3326 7.4544 24.3489L7.43837 24.3551H7.4211C7.37447 24.3662 7.32589 24.3662 7.27926 24.3551C7.2422 24.357 7.20575 24.3451 7.1769 24.3218C7.06352 24.2553 6.96082 24.1722 6.87226 24.0751L6.85376 24.0541L6.82169 24.0134L6.80689 23.9937C6.76484 23.9348 6.72928 23.8715 6.70082 23.805C6.66135 23.7137 6.63175 23.6188 6.59722 23.5263C6.58876 23.5031 6.58256 23.4791 6.57872 23.4547L6.57255 23.4399L6.53185 23.3314C6.51391 23.348 6.49702 23.3657 6.48128 23.3844C6.43935 23.4498 6.39741 23.5152 6.35795 23.5818C6.08126 24.0305 5.71313 24.4158 5.27753 24.7127C5.01891 24.8881 4.74179 25.0345 4.45118 25.1494C3.71696 25.454 2.91286 25.5501 2.12754 25.4269C1.96597 25.4022 1.80563 25.3689 1.649 25.3307V25.3381C1.61447 25.3321 1.58029 25.3243 1.54663 25.3146C1.42329 25.2789 1.30736 25.2419 1.18895 25.2036C0.996549 25.1428 0.807846 25.0745 0.622843 24.9989C1.20499 25.9621 2.16454 26.5911 3.24866 26.5911H11.2346C13.7671 26.5911 16.0016 26.053 17.9379 24.9767C19.8626 23.9134 21.432 22.3076 22.4508 20.359C23.5197 18.3585 24.0541 16.0024 24.0541 13.2906C24.0541 10.5789 23.5082 8.22607 22.4162 6.23215Z" fill="url(#paint4_radial_92_97)"/>
<path d="M11.4616 11.0768C11.555 10.9985 11.6699 10.9503 11.7912 10.9387C11.9125 10.927 12.0345 10.9524 12.1411 11.0114C12.1236 10.8536 12.0601 10.7044 11.9587 10.5822C11.8572 10.46 11.7222 10.3702 11.5703 10.3239C11.4184 10.2776 11.2563 10.2769 11.1039 10.3217C10.9516 10.3665 10.8157 10.455 10.7131 10.5762C10.6105 10.6974 10.5456 10.846 10.5265 11.0036C10.5074 11.1613 10.5349 11.3211 10.6056 11.4632C10.6763 11.6054 10.7871 11.7238 10.9243 11.8037C11.0615 11.8837 11.2191 11.9216 11.3777 11.913C11.2802 11.7901 11.2343 11.634 11.25 11.4779C11.2657 11.3217 11.3416 11.1779 11.4616 11.0768Z" fill="url(#paint5_radial_92_97)"/>
<defs>
<radialGradient id="paint0_radial_92_97" cx="0" cy="0" r="1" gradientUnits="userSpaceOnUse" gradientTransform="translate(36.5073 7.58144) rotate(90) scale(18.0873 19.4821)">
<stop offset="0.144704" stop-color="#FFFB9D"/>
<stop offset="0.500728" stop-color="#FFD912"/>
<stop offset="1" stop-color="#EBA900"/>
</radialGradient>
<radialGradient id="paint1_radial_92_97" cx="0" cy="0" r="1" gradientUnits="userSpaceOnUse" gradientTransform="translate(58.1038 7.26199) rotate(90) scale(18.4091 19.1005)">
<stop offset="0.144704" stop-color="#FFFB9D"/>
<stop offset="0.500728" stop-color="#FFD912"/>
<stop offset="1" stop-color="#EBA900"/>
</radialGradient>
<radialGradient id="paint2_radial_92_97" cx="0" cy="0" r="1" gradientUnits="userSpaceOnUse" gradientTransform="translate(80.0644 1.25925) rotate(90) scale(24.085 21.2086)">
<stop offset="0.144704" stop-color="#FFFB9D"/>
<stop offset="0.500728" stop-color="#FFD912"/>
<stop offset="1" stop-color="#EBA900"/>
</radialGradient>
<radialGradient id="paint3_radial_92_97" cx="0" cy="0" r="1" gradientUnits="userSpaceOnUse" gradientTransform="translate(103.018 7.58636) rotate(90) scale(24.3797 21.439)">
<stop offset="0.144704" stop-color="#FFFB9D"/>
<stop offset="0.500728" stop-color="#FFD912"/>
<stop offset="1" stop-color="#EBA900"/>
</radialGradient>
<radialGradient id="paint4_radial_92_97" cx="0" cy="0" r="1" gradientUnits="userSpaceOnUse" gradientTransform="translate(12.0271) rotate(90) scale(26.5912 24.0541)">
<stop offset="0.144704" stop-color="#FFFB9D"/>
<stop offset="0.500728" stop-color="#FFD912"/>
<stop offset="1" stop-color="#EBA900"/>
</radialGradient>
<radialGradient id="paint5_radial_92_97" cx="0" cy="0" r="1" gradientUnits="userSpaceOnUse" gradientTransform="translate(11.3309 10.2886) rotate(90) scale(1.62556 1.62056)">
<stop offset="0.144704" stop-color="#FFFB9D"/>
<stop offset="0.500728" stop-color="#FFD912"/>
<stop offset="1" stop-color="#EBA900"/>
</radialGradient>
</defs>
</svg>
