<svg width="56" height="25" viewBox="0 0 56 25" fill="none" xmlns="http://www.w3.org/2000/svg">
<path opacity="0.24" d="M18.0322 5.94311L27.0322 0.966338C27.6344 0.63331 28.3656 0.63331 28.9678 0.966338L37.9483 5.93232C38.5955 6.2902 38.9924 6.97601 38.9802 7.71547L38.8211 17.3796C38.8093 18.0991 38.4119 18.7567 37.7804 19.1018L28.975 23.9131C28.3834 24.2364 27.6687 24.2399 27.074 23.9223L18.058 19.1085C17.4067 18.7607 17 18.0825 17 17.3442V7.69333C17 6.96559 17.3953 6.29527 18.0322 5.94311Z" fill="#0A0A0C"/>
<path d="M22.9819 8.3987L26.9819 6.0332C27.6099 5.66187 28.3901 5.66187 29.0181 6.0332L33.0004 8.38827C33.6185 8.75379 33.9932 9.42258 33.9821 10.1406L33.9093 14.8695C33.8986 15.5692 33.5228 16.2124 32.9186 16.5655L29.0122 18.8483C28.395 19.2089 27.6322 19.2127 27.0114 18.8583L23.0083 16.5725C22.3848 16.2165 22 15.5536 22 14.8356V10.1202C22 9.41314 22.3733 8.75862 22.9819 8.3987Z" fill="#0A0A0C"/>
<line y1="12.4312" x2="17" y2="12.4312" stroke="#0A0A0C" stroke-width="2" stroke-dasharray="4 4"/>
<line x1="39" y1="12.4312" x2="56" y2="12.4312" stroke="#0A0A0C" stroke-width="2" stroke-dasharray="4 4"/>
</svg>
