<svg width="24" height="57" viewBox="0 0 24 57" fill="none" xmlns="http://www.w3.org/2000/svg">
<path opacity="0.24" d="M18.488 18.3994L23.4648 27.3994C23.7978 28.0016 23.7978 28.7328 23.4648 29.335L18.4988 38.3155C18.141 38.9627 17.4551 39.3596 16.7157 39.3474L7.05155 39.1883C6.33208 39.1765 5.67443 38.779 5.32939 38.1476L0.518007 29.3422C0.19474 28.7506 0.191286 28.0359 0.508817 27.4412L5.32269 18.4252C5.67043 17.7739 6.34867 17.3672 7.08697 17.3672L16.7378 17.3672C17.4656 17.3672 18.1359 17.7625 18.488 18.3994Z" fill="#0A0A0C"/>
<path d="M16.0324 23.3491L18.3979 27.3491C18.7693 27.977 18.7693 28.7573 18.3979 29.3852L16.0429 33.3676C15.6774 33.9857 15.0086 34.3604 14.2906 34.3493L9.56165 34.2765C8.86192 34.2657 8.21872 33.89 7.86564 33.2858L5.5829 29.3794C5.22222 28.7622 5.2184 27.9994 5.57288 27.3786L7.8587 23.3755C8.2147 22.752 8.87756 22.3672 9.5955 22.3672L14.3109 22.3672C15.018 22.3672 15.6725 22.7405 16.0324 23.3491Z" fill="#0A0A0C"/>
<line x1="12" y1="0.367188" x2="12" y2="17.3672" stroke="#0A0A0C" stroke-width="2" stroke-dasharray="4 4"/>
<line x1="12" y1="39.3672" x2="12" y2="56.3672" stroke="#0A0A0C" stroke-width="2" stroke-dasharray="4 4"/>
</svg>
